<svg class="main-svg" xmlns="http://www.w3.org/2000/svg" xmlns:xlink="http://www.w3.org/1999/xlink" width="1600" height="900" style="" viewBox="0 0 1600 900"><rect x="0" y="0" width="1600" height="900" style="fill: rgb(0, 0, 0); fill-opacity: 0;"/><defs id="defs-92e7c7"><g class="clips"><clipPath id="clip92e7c7xyplot" class="plotclip"><rect width="1168.4199999999998" height="718"/></clipPath><clipPath id="clip92e7c7xy2plot" class="plotclip"><rect width="1168.4199999999998" height="718"/></clipPath><clipPath class="axesclip" id="clip92e7c7x"><rect x="94" y="0" width="1168.4199999999998" height="900"/></clipPath><clipPath class="axesclip" id="clip92e7c7y"><rect x="0" y="100" width="1600" height="718"/></clipPath><clipPath class="axesclip" id="clip92e7c7xy"><rect x="94" y="100" width="1168.4199999999998" height="718"/></clipPath><clipPath class="axesclip" id="clip92e7c7y2"><rect x="0" y="100" width="1600" height="718"/></clipPath><clipPath class="axesclip" id="clip92e7c7xy2"><rect x="94" y="100" width="1168.4199999999998" height="718"/></clipPath></g><g class="gradients"/><g class="patterns"/></defs><g class="bglayer"><rect class="bg" x="94" y="100" width="1168.4199999999998" height="718" style="fill: rgb(0, 0, 0); fill-opacity: 0; stroke-width: 0;"/></g><g class="layer-below"><g class="imagelayer"/><g class="shapelayer"/></g><g class="cartesianlayer"><g class="subplot xy"><g class="layer-subplot"><g class="shapelayer"/><g class="imagelayer"/></g><g class="gridlayer"><g class="x"><path class="xgrid crisp" transform="translate(325.65,0)" d="M0,100v718" style="stroke: rgb(255, 255, 255); stroke-opacity: 1; stroke-width: 1px;"/><path class="xgrid crisp" transform="translate(556.8399999999999,0)" d="M0,100v718" style="stroke: rgb(255, 255, 255); stroke-opacity: 1; stroke-width: 1px;"/><path class="xgrid crisp" transform="translate(788.02,0)" d="M0,100v718" style="stroke: rgb(255, 255, 255); stroke-opacity: 1; stroke-width: 1px;"/><path class="xgrid crisp" transform="translate(1019.21,0)" d="M0,100v718" style="stroke: rgb(255, 255, 255); stroke-opacity: 1; stroke-width: 1px;"/><path class="xgrid crisp" transform="translate(1250.4,0)" d="M0,100v718" style="stroke: rgb(255, 255, 255); stroke-opacity: 1; stroke-width: 1px;"/></g><g class="y"><path class="ygrid crisp" transform="translate(0,670.18)" d="M94,0h1168.4199999999998" style="stroke: rgb(211, 211, 211); stroke-opacity: 1; stroke-width: 1px;"/><path class="ygrid crisp" transform="translate(0,529.39)" d="M94,0h1168.4199999999998" style="stroke: rgb(211, 211, 211); stroke-opacity: 1; stroke-width: 1px;"/><path class="ygrid crisp" transform="translate(0,388.61)" d="M94,0h1168.4199999999998" style="stroke: rgb(211, 211, 211); stroke-opacity: 1; stroke-width: 1px;"/><path class="ygrid crisp" transform="translate(0,247.82)" d="M94,0h1168.4199999999998" style="stroke: rgb(211, 211, 211); stroke-opacity: 1; stroke-width: 1px;"/><path class="ygrid crisp" transform="translate(0,107.04)" d="M94,0h1168.4199999999998" style="stroke: rgb(211, 211, 211); stroke-opacity: 1; stroke-width: 1px;"/></g><g class="y2"><path class="y2grid crisp" transform="translate(0,670.18)" d="M94,0h1168.4199999999998" style="stroke: rgb(211, 211, 211); stroke-opacity: 1; stroke-width: 1px;"/><path class="y2grid crisp" transform="translate(0,529.39)" d="M94,0h1168.4199999999998" style="stroke: rgb(211, 211, 211); stroke-opacity: 1; stroke-width: 1px;"/><path class="y2grid crisp" transform="translate(0,388.61)" d="M94,0h1168.4199999999998" style="stroke: rgb(211, 211, 211); stroke-opacity: 1; stroke-width: 1px;"/><path class="y2grid crisp" transform="translate(0,247.82)" d="M94,0h1168.4199999999998" style="stroke: rgb(211, 211, 211); stroke-opacity: 1; stroke-width: 1px;"/><path class="y2grid crisp" transform="translate(0,107.04)" d="M94,0h1168.4199999999998" style="stroke: rgb(211, 211, 211); stroke-opacity: 1; stroke-width: 1px;"/></g></g><g class="zerolinelayer"><path class="xzl zl crisp" transform="translate(94.46,0)" d="M0,100v718" style="stroke: rgb(211, 211, 211); stroke-opacity: 1; stroke-width: 2px;"/><path class="yzl zl crisp" transform="translate(0,810.96)" d="M94,0h1168.4199999999998" style="stroke: rgb(211, 211, 211); stroke-opacity: 1; stroke-width: 2px;"/><path class="y2zl zl crisp" transform="translate(0,810.96)" d="M94,0h1168.4199999999998" style="stroke: rgb(211, 211, 211); stroke-opacity: 1; stroke-width: 2px;"/></g><path class="xlines-below"/><path class="ylines-below"/><g class="overlines-below"><path class="xy2-x"/><path class="xy2-y"/></g><g class="xaxislayer-below"/><g class="yaxislayer-below"/><g class="overaxes-below"><g class="xy2-x"/><g class="xy2-y"/></g><g class="plot" transform="translate(94,100)" clip-path="url(#clip92e7c7xyplot)"><g class="scatterlayer mlayer"><g class="trace scatter trace430b8b" style="stroke-miterlimit: 2; opacity: 1;"><g class="fills"/><g class="errorbars"/><g class="lines"><path class="js-line" d="M0.46,687.44L5.09,685.89L8.94,682.63L26.66,671.08L30.52,667.93L48.24,655.75L52.09,652.63L82.92,631.56L86.77,628.5L147.65,585.48L151.5,581.76L177.71,563.68L182.33,560.7L199.28,547.25L203.91,544.33L212.38,537.76L217.01,535.04L229.34,526L233.96,523.03L286.36,485.93L290.22,482.67L294.84,480.04L298.69,476.98L311.79,466.97L316.42,464.24L324.9,458.44L329.52,455.49L333.37,452.08L338,449L402.73,404.09L407.35,401.21L419.68,391.62L424.31,388.76L472.08,355.87L475.94,353.07L493.66,341.02L497.51,338.07L515.24,326.99L519.09,323.7L553.77,299.85L558.39,296.48L575.35,284.52L579.97,281.65L606.17,262.54L610.03,249.29L614.65,546.93L619.27,618.73L623.13,618.97L627.75,587.94L631.6,593.38L636.23,593.16L657.8,592.97L661.66,587.7L666.28,584.34L670.91,583.22L683.24,581.31L687.86,581.43L691.71,564.22L696.34,555.01L709.44,556.21L713.29,553.02L717.91,552.34L722.54,552.84L731.01,551.33L734.87,550.69L744.11,551.32L747.97,549.33L752.59,549.2L757.22,546.74L765.69,549.24L769.55,549.13L774.17,546.51L778.79,542.82L782.65,544.91L787.27,535.98L791.89,531.64L795.75,529.93L808.85,531.75L812.7,532.64L817.32,533.28L821.95,527.99L825.8,533.67L830.42,528.04L834.28,530.92L838.9,536.93L843.52,533.03L847.38,534.79L852,532.77L856.63,533.59L860.48,533.25L865.1,526.22L868.96,527.68L873.58,524.51L878.2,528.66L882.06,527.21L891.3,528.22L895.16,527.6L899.78,528.99L903.63,530.98L908.26,531.69L912.88,529.69L916.73,534.24L921.36,537L925.21,535.8L929.83,538.95L934.46,533.28L938.31,529.83L942.94,528.91L946.79,529.31L959.89,531.28L964.51,529.68L968.37,531.3L972.99,535.29L986.09,532.81L990.71,532.68L994.57,533.32L999.19,532.81L1003.04,531.85L1007.67,532.29L1012.29,530.66L1016.14,525.87L1020.77,526.9L1025.39,529.54L1029.25,528.09L1033.87,531.76L1037.72,531.65L1042.35,527.69L1046.97,519.62L1050.82,516.8L1067.78,517.64L1072.4,518.38L1077.02,514.7L1080.88,518.22L1085.5,515.71L1090.12,521.91L1093.98,520.57L1098.6,524.11L1102.45,520.08L1107.08,523.07L1111.7,516.88L1115.56,519.28L1120.18,518.03L1124.8,515.53L1128.66,518.07L1133.28,516.09L1137.13,520.24L1141.76,517.99L1146.38,520.38L1150.23,524.03L1154.86,521.59L1159.48,522.53L1163.33,527.53L1167.96,520.37" style="vector-effect: non-scaling-stroke; fill: none; stroke: rgb(99, 110, 250); stroke-opacity: 1; stroke-width: 2px; opacity: 1;"/></g><g class="points"/><g class="text"/></g><g class="trace scatter trace8514f0" style="stroke-miterlimit: 2; opacity: 1;"><g class="fills"/><g class="errorbars"/><g class="lines"><path class="js-line" d="M0.46,705.65L619.27,705.65L623.13,703.93L627.75,685.9L631.6,680.62L687.86,680.62L691.71,390.29L696.34,238.52L700.96,237.49L709.44,237.49L713.29,231.3L717.91,206.75L722.54,206.75L731.01,206.75L734.87,176.06L834.28,176.06L838.9,152.42L1167.96,152.42" style="vector-effect: non-scaling-stroke; fill: none; stroke: rgb(239, 85, 59); stroke-opacity: 1; stroke-width: 2px; opacity: 1;"/></g><g class="points"/><g class="text"/></g></g></g><g class="overplot"><g class="xy2" transform="translate(94,100)" clip-path="url(#clip92e7c7xy2plot)"><g class="scatterlayer mlayer"><g class="trace scatter trace83f020" style="stroke-miterlimit: 2; opacity: 1;"><g class="fills"/><g class="errorbars"/><g class="lines"><path class="js-line" d="M0.46,710.96L623.13,710.96L627.75,705.68L631.6,710.96L636.23,710.96L687.86,710.96L691.71,299.17L700.96,44L704.81,601.85L709.44,575.46L713.29,214.7L717.91,408.27L722.54,253.41L726.39,112.63L731.01,269.25L734.87,364.28L739.49,168.94L744.11,183.02L747.97,295.65L752.59,253.41L757.22,147.82L761.07,350.2L765.69,343.16L769.55,334.36L774.17,8.8L778.79,330.84L782.65,496.26L787.27,700.4L791.89,710.96L817.32,710.96L821.95,151.34L825.8,89.75L830.42,573.7L834.28,241.09L838.9,163.66L843.52,251.65L847.38,299.17L852,24.64L856.63,292.13L860.48,179.5L865.1,337.88L868.96,204.14L873.58,98.55L878.2,395.96L882.06,161.9L886.68,337.88L891.3,8.8L895.16,278.05L899.78,204.14L903.63,207.66L908.26,290.37L912.88,40.48L916.73,475.15L921.36,710.96L925.21,642.33L929.83,710.96L934.46,705.68L938.31,710.96L942.94,710.96L959.89,710.96L964.51,566.66L968.37,286.85L972.99,570.18L977.61,235.81L981.47,223.5L986.09,355.48L990.71,276.29L994.57,149.58L999.19,230.53L1003.04,232.29L1007.67,295.65L1012.29,42.24L1016.14,293.89L1020.77,278.05L1025.39,249.89L1029.25,29.92L1033.87,359L1037.72,448.75L1042.35,705.68L1046.97,710.96L1050.82,710.96L1072.4,710.96L1077.02,464.59L1080.88,207.66L1085.5,603.61L1090.12,66.87L1093.98,373.08L1098.6,207.66L1102.45,207.66L1107.08,221.74L1111.7,12.32L1115.56,373.08L1120.18,61.59L1124.8,341.4L1128.66,218.22L1133.28,160.14L1137.13,295.65L1141.76,17.6L1146.38,364.28L1150.23,8.8L1154.86,346.68L1159.48,175.98L1163.33,600.09L1167.96,617.69" style="vector-effect: non-scaling-stroke; fill: none; stroke: rgb(0, 204, 150); stroke-opacity: 1; stroke-width: 2px; opacity: 1;"/></g><g class="points"/><g class="text"/></g></g></g></g><path class="xlines-above crisp" d="M94,818.5H1262.4199999999998M94,99.5H1262.4199999999998" style="fill: none; stroke-width: 1px; stroke: rgb(255, 255, 255); stroke-opacity: 1;"/><path class="ylines-above crisp" d="" style="fill: none; stroke-width: 1px; stroke: rgb(0, 0, 0); stroke-opacity: 0;"/><g class="overlines-above"><path class="xy2-x crisp" d="M0,0" style="fill: none;"/><path class="xy2-y crisp" d="" style="fill: none; stroke-width: 1px; stroke: rgb(0, 0, 0); stroke-opacity: 0;"/></g><g class="xaxislayer-above"><path class="xtick ticks crisp" d="M0,818v-5" transform="translate(325.65,0)" style="stroke: rgb(0, 0, 0); stroke-opacity: 0; stroke-width: 1px;"/><path class="xtick ticks crisp" d="M0,818v-5" transform="translate(556.8399999999999,0)" style="stroke: rgb(0, 0, 0); stroke-opacity: 0; stroke-width: 1px;"/><path class="xtick ticks crisp" d="M0,818v-5" transform="translate(788.02,0)" style="stroke: rgb(0, 0, 0); stroke-opacity: 0; stroke-width: 1px;"/><path class="xtick ticks crisp" d="M0,818v-5" transform="translate(1019.21,0)" style="stroke: rgb(0, 0, 0); stroke-opacity: 0; stroke-width: 1px;"/><path class="xtick ticks crisp" d="M0,818v-5" transform="translate(1250.4,0)" style="stroke: rgb(0, 0, 0); stroke-opacity: 0; stroke-width: 1px;"/><g class="xtick"><text text-anchor="middle" x="0" y="847.8" transform="translate(94.46,0)" style="font-family: 'Open Sans'; font-size: 24px; fill: rgb(0, 0, 0); fill-opacity: 1; white-space: pre; opacity: 1;">0</text></g><g class="xtick"><text text-anchor="middle" x="0" y="847.8" style="font-family: 'Open Sans'; font-size: 24px; fill: rgb(0, 0, 0); fill-opacity: 1; white-space: pre; opacity: 1;" transform="translate(325.65,0)">5</text></g><g class="xtick"><text text-anchor="middle" x="0" y="847.8" style="font-family: 'Open Sans'; font-size: 24px; fill: rgb(0, 0, 0); fill-opacity: 1; white-space: pre; opacity: 1;" transform="translate(556.8399999999999,0)">10</text></g><g class="xtick"><text text-anchor="middle" x="0" y="847.8" style="font-family: 'Open Sans'; font-size: 24px; fill: rgb(0, 0, 0); fill-opacity: 1; white-space: pre; opacity: 1;" transform="translate(788.02,0)">15</text></g><g class="xtick"><text text-anchor="middle" x="0" y="847.8" style="font-family: 'Open Sans'; font-size: 24px; fill: rgb(0, 0, 0); fill-opacity: 1; white-space: pre; opacity: 1;" transform="translate(1019.21,0)">20</text></g><g class="xtick"><text text-anchor="middle" x="0" y="847.8" style="font-family: 'Open Sans'; font-size: 24px; fill: rgb(0, 0, 0); fill-opacity: 1; white-space: pre; opacity: 1;" transform="translate(1250.4,0)">25</text></g></g><g class="yaxislayer-above"><path class="ytick ticks crisp" d="M93,0h-5" transform="translate(0,810.96)" style="stroke: rgb(0, 0, 0); stroke-opacity: 0; stroke-width: 1px;"/><path class="ytick ticks crisp" d="M93,0h-5" transform="translate(0,670.18)" style="stroke: rgb(0, 0, 0); stroke-opacity: 0; stroke-width: 1px;"/><path class="ytick ticks crisp" d="M93,0h-5" transform="translate(0,529.39)" style="stroke: rgb(0, 0, 0); stroke-opacity: 0; stroke-width: 1px;"/><path class="ytick ticks crisp" d="M93,0h-5" transform="translate(0,388.61)" style="stroke: rgb(0, 0, 0); stroke-opacity: 0; stroke-width: 1px;"/><path class="ytick ticks crisp" d="M93,0h-5" transform="translate(0,247.82)" style="stroke: rgb(0, 0, 0); stroke-opacity: 0; stroke-width: 1px;"/><path class="ytick ticks crisp" d="M93,0h-5" transform="translate(0,107.04)" style="stroke: rgb(0, 0, 0); stroke-opacity: 0; stroke-width: 1px;"/><g class="ytick"><text text-anchor="end" x="83.2" y="8.399999999999999" transform="translate(0,810.96)" style="font-family: 'Open Sans'; font-size: 24px; fill: rgb(0, 0, 0); fill-opacity: 1; white-space: pre; opacity: 1;">0</text></g><g class="ytick"><text text-anchor="end" x="83.2" y="8.399999999999999" style="font-family: 'Open Sans'; font-size: 24px; fill: rgb(0, 0, 0); fill-opacity: 1; white-space: pre; opacity: 1;" transform="translate(0,670.18)">20</text></g><g class="ytick"><text text-anchor="end" x="83.2" y="8.399999999999999" style="font-family: 'Open Sans'; font-size: 24px; fill: rgb(0, 0, 0); fill-opacity: 1; white-space: pre; opacity: 1;" transform="translate(0,529.39)">40</text></g><g class="ytick"><text text-anchor="end" x="83.2" y="8.399999999999999" style="font-family: 'Open Sans'; font-size: 24px; fill: rgb(0, 0, 0); fill-opacity: 1; white-space: pre; opacity: 1;" transform="translate(0,388.61)">60</text></g><g class="ytick"><text text-anchor="end" x="83.2" y="8.399999999999999" style="font-family: 'Open Sans'; font-size: 24px; fill: rgb(0, 0, 0); fill-opacity: 1; white-space: pre; opacity: 1;" transform="translate(0,247.82)">80</text></g><g class="ytick"><text text-anchor="end" x="83.2" y="8.399999999999999" style="font-family: 'Open Sans'; font-size: 24px; fill: rgb(0, 0, 0); fill-opacity: 1; white-space: pre; opacity: 1;" transform="translate(0,107.04)">100</text></g></g><g class="overaxes-above"><g class="xy2-x"/><g class="xy2-y"><path class="y2tick ticks crisp" d="M1263.4199999999998,0h5" transform="translate(0,810.96)" style="stroke: rgb(0, 0, 0); stroke-opacity: 0; stroke-width: 1px;"/><path class="y2tick ticks crisp" d="M1263.4199999999998,0h5" transform="translate(0,670.18)" style="stroke: rgb(0, 0, 0); stroke-opacity: 0; stroke-width: 1px;"/><path class="y2tick ticks crisp" d="M1263.4199999999998,0h5" transform="translate(0,529.39)" style="stroke: rgb(0, 0, 0); stroke-opacity: 0; stroke-width: 1px;"/><path class="y2tick ticks crisp" d="M1263.4199999999998,0h5" transform="translate(0,388.61)" style="stroke: rgb(0, 0, 0); stroke-opacity: 0; stroke-width: 1px;"/><path class="y2tick ticks crisp" d="M1263.4199999999998,0h5" transform="translate(0,247.82)" style="stroke: rgb(0, 0, 0); stroke-opacity: 0; stroke-width: 1px;"/><path class="y2tick ticks crisp" d="M1263.4199999999998,0h5" transform="translate(0,107.04)" style="stroke: rgb(0, 0, 0); stroke-opacity: 0; stroke-width: 1px;"/><g class="y2tick"><text text-anchor="start" x="1273.2199999999998" y="8.399999999999999" transform="translate(0,810.96)" style="font-family: 'Open Sans'; font-size: 24px; fill: rgb(0, 0, 0); fill-opacity: 1; white-space: pre; opacity: 1;">0</text></g><g class="y2tick"><text text-anchor="start" x="1273.2199999999998" y="8.399999999999999" style="font-family: 'Open Sans'; font-size: 24px; fill: rgb(0, 0, 0); fill-opacity: 1; white-space: pre; opacity: 1;" transform="translate(0,670.18)">20</text></g><g class="y2tick"><text text-anchor="start" x="1273.2199999999998" y="8.399999999999999" style="font-family: 'Open Sans'; font-size: 24px; fill: rgb(0, 0, 0); fill-opacity: 1; white-space: pre; opacity: 1;" transform="translate(0,529.39)">40</text></g><g class="y2tick"><text text-anchor="start" x="1273.2199999999998" y="8.399999999999999" style="font-family: 'Open Sans'; font-size: 24px; fill: rgb(0, 0, 0); fill-opacity: 1; white-space: pre; opacity: 1;" transform="translate(0,388.61)">60</text></g><g class="y2tick"><text text-anchor="start" x="1273.2199999999998" y="8.399999999999999" style="font-family: 'Open Sans'; font-size: 24px; fill: rgb(0, 0, 0); fill-opacity: 1; white-space: pre; opacity: 1;" transform="translate(0,247.82)">80</text></g><g class="y2tick"><text text-anchor="start" x="1273.2199999999998" y="8.399999999999999" style="font-family: 'Open Sans'; font-size: 24px; fill: rgb(0, 0, 0); fill-opacity: 1; white-space: pre; opacity: 1;" transform="translate(0,107.04)">100</text></g></g></g></g><g class="subplot xy2"/></g><g class="polarlayer"/><g class="ternarylayer"/><g class="geolayer"/><g class="funnelarealayer"/><g class="pielayer"/><g class="iciclelayer"/><g class="treemaplayer"/><g class="sunburstlayer"/><g class="glimages"/><defs id="topdefs-92e7c7"><g class="clips"/><clipPath id="legend92e7c7"><rect width="226" height="82" x="0" y="0"/></clipPath></defs><g class="layer-above"><g class="imagelayer"/><g class="shapelayer"><path data-index="0" fill-rule="evenodd" d="M1261.96,818L1261.96,100" clip-path="url(#clip92e7c7x)" style="opacity: 1; stroke: rgb(211, 211, 211); stroke-opacity: 1; fill: rgb(0, 0, 0); fill-opacity: 0; stroke-width: 1px;"/></g></g><g class="infolayer"><g class="legend" pointer-events="all" transform="translate(1361.8600000000001,100)"><rect class="bg" shape-rendering="crispEdges" width="226" height="82" x="0" y="0" style="stroke: rgb(68, 68, 68); stroke-opacity: 1; fill: rgb(0, 0, 0); fill-opacity: 0; stroke-width: 0px;"/><g class="scrollbox" transform="" clip-path="url(#legend92e7c7)"><g class="groups"><g class="traces" transform="translate(0,16.9)" style="opacity: 1;"><text class="legendtext" text-anchor="start" x="40" y="6.24" style="font-family: 'Open Sans'; font-size: 16px; fill: rgb(0, 0, 0); fill-opacity: 1; white-space: pre;">System RAM Used (GB)</text><g class="layers" style="opacity: 1;"><g class="legendfill"/><g class="legendlines"><path class="js-line" d="M5,0h30" style="fill: none; stroke: rgb(99, 110, 250); stroke-opacity: 1; stroke-width: 2px;"/></g><g class="legendsymbols"><g class="legendpoints"/></g></g><rect class="legendtoggle" x="0" y="-11.9" width="220.203125" height="23.8" style="fill: rgb(0, 0, 0); fill-opacity: 0;"/></g><g class="traces" transform="translate(0,40.7)" style="opacity: 1;"><text class="legendtext" text-anchor="start" x="40" y="6.24" style="font-family: 'Open Sans'; font-size: 16px; fill: rgb(0, 0, 0); fill-opacity: 1; white-space: pre;">Total GPU Mem Used (GB)</text><g class="layers" style="opacity: 1;"><g class="legendfill"/><g class="legendlines"><path class="js-line" d="M5,0h30" style="fill: none; stroke: rgb(239, 85, 59); stroke-opacity: 1; stroke-width: 2px;"/></g><g class="legendsymbols"><g class="legendpoints"/></g></g><rect class="legendtoggle" x="0" y="-11.9" width="220.203125" height="23.8" style="fill: rgb(0, 0, 0); fill-opacity: 0;"/></g><g class="traces" transform="translate(0,64.5)" style="opacity: 1;"><text class="legendtext" text-anchor="start" x="40" y="6.24" style="font-family: 'Open Sans'; font-size: 16px; fill: rgb(0, 0, 0); fill-opacity: 1; white-space: pre;">Avg GPU Util (%)</text><g class="layers" style="opacity: 1;"><g class="legendfill"/><g class="legendlines"><path class="js-line" d="M5,0h30" style="fill: none; stroke: rgb(0, 204, 150); stroke-opacity: 1; stroke-width: 2px;"/></g><g class="legendsymbols"><g class="legendpoints"/></g></g><rect class="legendtoggle" x="0" y="-11.9" width="220.203125" height="23.8" style="fill: rgb(0, 0, 0); fill-opacity: 0;"/></g></g></g><rect class="scrollbar" rx="20" ry="3" width="0" height="0" x="0" y="0" style="fill: rgb(128, 139, 164); fill-opacity: 1;"/></g><g class="g-gtitle"/><g class="g-xtitle"><text class="xtitle" x="678.2099999999999" y="888.1125" text-anchor="middle" style="font-family: 'Open Sans'; font-size: 29px; fill: rgb(0, 0, 0); opacity: 1; font-weight: normal; white-space: pre;">Time (min)</text></g><g class="g-ytitle" transform="translate(14.1123046875,0)"><text class="ytitle" transform="rotate(-90,11.887500000000003,459)" x="11.887500000000003" y="459" text-anchor="middle" style="font-family: 'Open Sans'; font-size: 29px; fill: rgb(0, 0, 0); opacity: 1; font-weight: normal; white-space: pre;">Memory Used (GB)</text></g><g class="g-y2title"><text class="y2title" transform="rotate(-90,1344.534375,459)" x="1344.534375" y="459" text-anchor="middle" style="font-family: 'Open Sans'; font-size: 29px; fill: rgb(0, 0, 0); opacity: 1; font-weight: normal; white-space: pre;">GPU Utilization (%)</text></g></g></svg>