<svg class="main-svg" xmlns="http://www.w3.org/2000/svg" xmlns:xlink="http://www.w3.org/1999/xlink" width="1600" height="900" style="" viewBox="0 0 1600 900"><rect x="0" y="0" width="1600" height="900" style="fill: rgb(0, 0, 0); fill-opacity: 0;"/><defs id="defs-c93fac"><g class="clips"><clipPath id="clipc93facxyplot" class="plotclip"><rect width="1168.4199999999998" height="718"/></clipPath><clipPath id="clipc93facxy2plot" class="plotclip"><rect width="1168.4199999999998" height="718"/></clipPath><clipPath class="axesclip" id="clipc93facx"><rect x="94" y="0" width="1168.4199999999998" height="900"/></clipPath><clipPath class="axesclip" id="clipc93facy"><rect x="0" y="100" width="1600" height="718"/></clipPath><clipPath class="axesclip" id="clipc93facxy"><rect x="94" y="100" width="1168.4199999999998" height="718"/></clipPath><clipPath class="axesclip" id="clipc93facy2"><rect x="0" y="100" width="1600" height="718"/></clipPath><clipPath class="axesclip" id="clipc93facxy2"><rect x="94" y="100" width="1168.4199999999998" height="718"/></clipPath></g><g class="gradients"/><g class="patterns"/></defs><g class="bglayer"><rect class="bg" x="94" y="100" width="1168.4199999999998" height="718" style="fill: rgb(0, 0, 0); fill-opacity: 0; stroke-width: 0;"/></g><g class="layer-below"><g class="imagelayer"/><g class="shapelayer"/></g><g class="cartesianlayer"><g class="subplot xy"><g class="layer-subplot"><g class="shapelayer"/><g class="imagelayer"/></g><g class="gridlayer"><g class="x"><path class="xgrid crisp" transform="translate(289.53999999999996,0)" d="M0,100v718" style="stroke: rgb(255, 255, 255); stroke-opacity: 1; stroke-width: 1px;"/><path class="xgrid crisp" transform="translate(484.69,0)" d="M0,100v718" style="stroke: rgb(255, 255, 255); stroke-opacity: 1; stroke-width: 1px;"/><path class="xgrid crisp" transform="translate(679.84,0)" d="M0,100v718" style="stroke: rgb(255, 255, 255); stroke-opacity: 1; stroke-width: 1px;"/><path class="xgrid crisp" transform="translate(874.98,0)" d="M0,100v718" style="stroke: rgb(255, 255, 255); stroke-opacity: 1; stroke-width: 1px;"/><path class="xgrid crisp" transform="translate(1070.13,0)" d="M0,100v718" style="stroke: rgb(255, 255, 255); stroke-opacity: 1; stroke-width: 1px;"/></g><g class="y"><path class="ygrid crisp" transform="translate(0,670.18)" d="M94,0h1168.4199999999998" style="stroke: rgb(211, 211, 211); stroke-opacity: 1; stroke-width: 1px;"/><path class="ygrid crisp" transform="translate(0,529.39)" d="M94,0h1168.4199999999998" style="stroke: rgb(211, 211, 211); stroke-opacity: 1; stroke-width: 1px;"/><path class="ygrid crisp" transform="translate(0,388.61)" d="M94,0h1168.4199999999998" style="stroke: rgb(211, 211, 211); stroke-opacity: 1; stroke-width: 1px;"/><path class="ygrid crisp" transform="translate(0,247.82)" d="M94,0h1168.4199999999998" style="stroke: rgb(211, 211, 211); stroke-opacity: 1; stroke-width: 1px;"/><path class="ygrid crisp" transform="translate(0,107.04)" d="M94,0h1168.4199999999998" style="stroke: rgb(211, 211, 211); stroke-opacity: 1; stroke-width: 1px;"/></g><g class="y2"><path class="y2grid crisp" transform="translate(0,670.18)" d="M94,0h1168.4199999999998" style="stroke: rgb(211, 211, 211); stroke-opacity: 1; stroke-width: 1px;"/><path class="y2grid crisp" transform="translate(0,529.39)" d="M94,0h1168.4199999999998" style="stroke: rgb(211, 211, 211); stroke-opacity: 1; stroke-width: 1px;"/><path class="y2grid crisp" transform="translate(0,388.61)" d="M94,0h1168.4199999999998" style="stroke: rgb(211, 211, 211); stroke-opacity: 1; stroke-width: 1px;"/><path class="y2grid crisp" transform="translate(0,247.82)" d="M94,0h1168.4199999999998" style="stroke: rgb(211, 211, 211); stroke-opacity: 1; stroke-width: 1px;"/><path class="y2grid crisp" transform="translate(0,107.04)" d="M94,0h1168.4199999999998" style="stroke: rgb(211, 211, 211); stroke-opacity: 1; stroke-width: 1px;"/></g></g><g class="zerolinelayer"><path class="xzl zl crisp" transform="translate(94.39,0)" d="M0,100v718" style="stroke: rgb(211, 211, 211); stroke-opacity: 1; stroke-width: 2px;"/><path class="yzl zl crisp" transform="translate(0,810.96)" d="M94,0h1168.4199999999998" style="stroke: rgb(211, 211, 211); stroke-opacity: 1; stroke-width: 2px;"/><path class="y2zl zl crisp" transform="translate(0,810.96)" d="M94,0h1168.4199999999998" style="stroke: rgb(211, 211, 211); stroke-opacity: 1; stroke-width: 2px;"/></g><path class="xlines-below"/><path class="ylines-below"/><g class="overlines-below"><path class="xy2-x"/><path class="xy2-y"/></g><g class="xaxislayer-below"/><g class="yaxislayer-below"/><g class="overaxes-below"><g class="xy2-x"/><g class="xy2-y"/></g><g class="plot" transform="translate(94,100)" clip-path="url(#clipc93facxyplot)"><g class="scatterlayer mlayer"><g class="trace scatter trace946c55" style="stroke-miterlimit: 2; opacity: 1;"><g class="fills"/><g class="errorbars"/><g class="lines"><path class="js-line" d="M0.39,688.04L4.29,686.39L7.55,683.16L81.05,622.89L84.3,619.69L106.42,601.36L109.67,598.26L142.85,570.58L146.1,568.06L153.91,562.61L157.16,559.26L161.06,556.45L164.32,553.14L172.12,546.16L175.37,543L190.33,531.03L193.59,527.62L204.65,518.52L208.55,515.2L218.96,506.36L222.86,503.32L263.19,469.59L266.44,466.76L281.4,455.91L284.66,452.61L302.87,437.95L306.77,434.71L313.93,429.18L317.83,425.56L324.99,418.98L328.89,416.3L397.84,359.47L401.75,356.63L416.06,344.52L419.96,341.77L427.12,335.95L431.02,333.13L441.43,324.79L445.33,321.54L460.29,309.88L463.54,306.99L478.5,294.49L481.76,291.17L496.72,279.28L499.97,275.7L514.93,263.37L518.18,252.82L525.34,617.58L529.24,628.19L533.15,587.31L536.4,593.59L547.46,592.62L550.71,593.07L558.52,592.53L561.77,588.32L565.67,583.9L568.92,582.08L572.83,581.9L576.08,580.89L579.98,580.14L583.88,580.44L587.14,573.51L591.04,558.52L598.2,560.98L602.1,558.57L605.35,553.91L609.25,550.09L612.51,547.94L616.41,547.85L623.56,545.75L627.47,543.02L631.37,541.94L634.62,542.1L638.53,543.15L641.78,541.12L649.58,536.85L652.84,539.61L656.74,527.71L659.99,529.22L663.9,527.1L667.8,526.79L671.05,526.9L674.95,526.15L682.11,526.5L685.36,522.2L689.27,525.67L693.17,519.5L696.42,524.08L700.32,526.77L707.48,524.94L711.38,526.84L714.63,523.5L718.54,525.25L722.44,524.88L725.69,522.04L729.6,523.84L732.85,520.9L736.75,521.95L740.65,521.95L743.91,519.78L747.81,521.71L751.71,519.32L754.97,529.23L758.87,528.88L762.12,531.08L766.02,528.33L769.93,521.77L773.18,519.4L777.08,519.16L784.24,519.16L787.49,519.46L791.39,519.55L795.3,517.51L802.45,523.16L805.7,524.62L809.61,524.99L813.51,524.23L816.76,524.29L820.67,525.89L824.57,526.33L827.82,524.72L835.63,523.92L838.88,525.2L842.78,523.86L846.03,524.15L853.84,526.81L857.09,523.61L861,524.65L864.9,523.78L868.15,524.98L872.05,523.83L875.31,517.09L879.21,516.62L883.11,515.28L886.37,515.35L897.42,515.53L900.68,513.4L904.58,512.99L908.48,509.45L911.73,513.53L915.64,515.39L919.54,513.75L922.79,513.29L926.7,516.26L929.95,512.34L933.85,514.85L937.75,513.14L941.01,512.98L944.91,514.43L948.16,511.59L952.07,513.09L959.22,514.3L963.12,516.08L967.03,512.71L970.28,513.42L974.18,514.39L977.43,511.57L981.34,514.46L985.24,511.64L992.4,513.11L995.65,509.02L999.55,510.46L1003.45,508.73L1010.61,511.43L1014.51,510.99L1017.77,512.41L1021.67,509.29L1024.92,510.35L1028.82,510.27L1032.73,509.58L1035.98,511.05L1039.88,508.08L1043.13,509.19L1047.04,510L1050.94,507.4L1054.19,509.69L1058.1,506.89L1062,508.07L1065.25,507.77L1069.15,506.68L1072.41,508.14L1076.31,506.23L1080.21,508.48L1083.47,509.7L1087.37,507.85L1091.27,508.88L1094.52,507.82L1098.43,506.9L1101.68,508.93L1105.58,506.38L1109.49,507.82L1112.74,506.99L1116.64,507.32L1120.54,507.78L1123.8,503.04L1127.7,505.61L1131.6,505.7L1134.85,505.57L1138.76,507.12L1142.01,504.42L1145.91,506.08L1149.82,505.97L1153.07,504.73L1156.97,506.66L1160.22,503.72L1168.03,513.95" style="vector-effect: non-scaling-stroke; fill: none; stroke: rgb(99, 110, 250); stroke-opacity: 1; stroke-width: 2px; opacity: 1;"/></g><g class="points"/><g class="text"/></g><g class="trace scatter tracea11969" style="stroke-miterlimit: 2; opacity: 1;"><g class="fills"/><g class="errorbars"/><g class="lines"><path class="js-line" d="M0.39,705.65L529.24,705.48L533.15,691.2L536.4,688.87L540.3,688.87L583.88,688.87L587.14,660.21L591.04,536.45L594.29,529.95L602.1,529.92L605.35,484.85L609.25,473.58L612.51,473.58L1168.03,473.58" style="vector-effect: non-scaling-stroke; fill: none; stroke: rgb(239, 85, 59); stroke-opacity: 1; stroke-width: 2px; opacity: 1;"/></g><g class="points"/><g class="text"/></g></g></g><g class="overplot"><g class="xy2" transform="translate(94,100)" clip-path="url(#clipc93facxy2plot)"><g class="scatterlayer mlayer"><g class="trace scatter tracee22951" style="stroke-miterlimit: 2; opacity: 1;"><g class="fills"/><g class="errorbars"/><g class="lines"><path class="js-line" d="M0.39,710.96L583.88,710.96L587.14,600.09L591.04,302.69L594.29,221.74L598.2,710.96L602.1,501.54L605.35,253.41L609.25,58.07L612.51,218.22L616.41,355.48L620.31,320.28L623.56,133.75L627.47,59.83L631.37,197.1L634.62,425.87L638.53,357.24L641.78,52.79L645.68,147.82L649.58,202.38L652.84,468.11L656.74,705.68L659.99,710.96L682.11,710.96L685.36,339.64L689.27,107.35L693.17,593.05L696.42,183.02L700.32,293.89L704.23,66.87L707.48,325.56L711.38,174.22L714.63,89.75L718.54,346.68L722.44,91.51L725.69,403L729.6,304.45L732.85,72.15L736.75,269.25L740.65,193.58L743.91,114.39L747.81,320.28L751.71,51.03L754.97,570.18L758.87,710.96L762.12,624.73L766.02,710.96L791.39,710.96L795.3,494.5L798.55,327.32L802.45,227.01L805.7,316.76L809.61,165.42L813.51,253.41L816.76,160.14L820.67,318.52L824.57,161.9L827.82,21.12L831.72,373.08L835.63,142.54L838.88,329.08L842.78,146.06L846.03,322.04L849.94,325.56L853.84,255.17L857.09,58.07L861,322.04L864.9,181.26L868.15,343.16L872.05,675.76L875.31,710.96L897.42,710.96L900.68,614.17L904.58,56.31L908.48,633.53L911.73,197.1L915.64,325.56L919.54,49.27L922.79,348.44L926.7,139.02L929.95,80.95L933.85,313.25L937.75,40.48L941.01,332.6L944.91,249.89L948.16,89.75L952.07,198.86L955.97,68.63L959.22,332.6L963.12,339.64L967.03,91.51L970.28,316.76L974.18,126.71L977.43,135.5L981.34,346.68L985.24,42.24L988.49,302.69L992.4,265.73L995.65,211.18L999.55,161.9L1003.45,40.48L1006.71,343.16L1010.61,167.18L1014.51,320.28L1017.77,341.4L1021.67,121.43L1024.92,307.97L1028.82,154.86L1032.73,339.64L1035.98,248.13L1039.88,47.51L1043.13,128.47L1047.04,56.31L1050.94,330.84L1054.19,311.49L1058.1,93.27L1062,283.33L1065.25,66.87L1069.15,126.71L1072.41,265.73L1076.31,126.71L1080.21,344.92L1083.47,239.33L1087.37,167.18L1091.27,269.25L1094.52,72.15L1098.43,102.07L1101.68,183.02L1105.58,234.05L1109.49,344.92L1112.74,73.91L1116.64,439.95L1120.54,223.5L1123.8,168.94L1127.7,126.71L1131.6,45.75L1134.85,123.19L1138.76,188.3L1142.01,188.3L1145.91,288.61L1149.82,87.99L1153.07,313.25L1156.97,137.26L1160.22,73.91L1164.13,413.55L1168.03,710.96" style="vector-effect: non-scaling-stroke; fill: none; stroke: rgb(0, 204, 150); stroke-opacity: 1; stroke-width: 2px; opacity: 1;"/></g><g class="points"/><g class="text"/></g></g></g></g><path class="xlines-above crisp" d="M94,818.5H1262.4199999999998M94,99.5H1262.4199999999998" style="fill: none; stroke-width: 1px; stroke: rgb(255, 255, 255); stroke-opacity: 1;"/><path class="ylines-above crisp" d="" style="fill: none; stroke-width: 1px; stroke: rgb(0, 0, 0); stroke-opacity: 0;"/><g class="overlines-above"><path class="xy2-x crisp" d="M0,0" style="fill: none;"/><path class="xy2-y crisp" d="" style="fill: none; stroke-width: 1px; stroke: rgb(0, 0, 0); stroke-opacity: 0;"/></g><g class="xaxislayer-above"><path class="xtick ticks crisp" d="M0,818v-5" transform="translate(289.53999999999996,0)" style="stroke: rgb(0, 0, 0); stroke-opacity: 0; stroke-width: 1px;"/><path class="xtick ticks crisp" d="M0,818v-5" transform="translate(484.69,0)" style="stroke: rgb(0, 0, 0); stroke-opacity: 0; stroke-width: 1px;"/><path class="xtick ticks crisp" d="M0,818v-5" transform="translate(679.84,0)" style="stroke: rgb(0, 0, 0); stroke-opacity: 0; stroke-width: 1px;"/><path class="xtick ticks crisp" d="M0,818v-5" transform="translate(874.98,0)" style="stroke: rgb(0, 0, 0); stroke-opacity: 0; stroke-width: 1px;"/><path class="xtick ticks crisp" d="M0,818v-5" transform="translate(1070.13,0)" style="stroke: rgb(0, 0, 0); stroke-opacity: 0; stroke-width: 1px;"/><g class="xtick"><text text-anchor="middle" x="0" y="847.8" transform="translate(94.39,0)" style="font-family: 'Open Sans'; font-size: 24px; fill: rgb(0, 0, 0); fill-opacity: 1; white-space: pre; opacity: 1;">0</text></g><g class="xtick"><text text-anchor="middle" x="0" y="847.8" style="font-family: 'Open Sans'; font-size: 24px; fill: rgb(0, 0, 0); fill-opacity: 1; white-space: pre; opacity: 1;" transform="translate(289.53999999999996,0)">5</text></g><g class="xtick"><text text-anchor="middle" x="0" y="847.8" style="font-family: 'Open Sans'; font-size: 24px; fill: rgb(0, 0, 0); fill-opacity: 1; white-space: pre; opacity: 1;" transform="translate(484.69,0)">10</text></g><g class="xtick"><text text-anchor="middle" x="0" y="847.8" style="font-family: 'Open Sans'; font-size: 24px; fill: rgb(0, 0, 0); fill-opacity: 1; white-space: pre; opacity: 1;" transform="translate(679.84,0)">15</text></g><g class="xtick"><text text-anchor="middle" x="0" y="847.8" style="font-family: 'Open Sans'; font-size: 24px; fill: rgb(0, 0, 0); fill-opacity: 1; white-space: pre; opacity: 1;" transform="translate(874.98,0)">20</text></g><g class="xtick"><text text-anchor="middle" x="0" y="847.8" style="font-family: 'Open Sans'; font-size: 24px; fill: rgb(0, 0, 0); fill-opacity: 1; white-space: pre; opacity: 1;" transform="translate(1070.13,0)">25</text></g></g><g class="yaxislayer-above"><path class="ytick ticks crisp" d="M93,0h-5" transform="translate(0,810.96)" style="stroke: rgb(0, 0, 0); stroke-opacity: 0; stroke-width: 1px;"/><path class="ytick ticks crisp" d="M93,0h-5" transform="translate(0,670.18)" style="stroke: rgb(0, 0, 0); stroke-opacity: 0; stroke-width: 1px;"/><path class="ytick ticks crisp" d="M93,0h-5" transform="translate(0,529.39)" style="stroke: rgb(0, 0, 0); stroke-opacity: 0; stroke-width: 1px;"/><path class="ytick ticks crisp" d="M93,0h-5" transform="translate(0,388.61)" style="stroke: rgb(0, 0, 0); stroke-opacity: 0; stroke-width: 1px;"/><path class="ytick ticks crisp" d="M93,0h-5" transform="translate(0,247.82)" style="stroke: rgb(0, 0, 0); stroke-opacity: 0; stroke-width: 1px;"/><path class="ytick ticks crisp" d="M93,0h-5" transform="translate(0,107.04)" style="stroke: rgb(0, 0, 0); stroke-opacity: 0; stroke-width: 1px;"/><g class="ytick"><text text-anchor="end" x="83.2" y="8.399999999999999" transform="translate(0,810.96)" style="font-family: 'Open Sans'; font-size: 24px; fill: rgb(0, 0, 0); fill-opacity: 1; white-space: pre; opacity: 1;">0</text></g><g class="ytick"><text text-anchor="end" x="83.2" y="8.399999999999999" style="font-family: 'Open Sans'; font-size: 24px; fill: rgb(0, 0, 0); fill-opacity: 1; white-space: pre; opacity: 1;" transform="translate(0,670.18)">20</text></g><g class="ytick"><text text-anchor="end" x="83.2" y="8.399999999999999" style="font-family: 'Open Sans'; font-size: 24px; fill: rgb(0, 0, 0); fill-opacity: 1; white-space: pre; opacity: 1;" transform="translate(0,529.39)">40</text></g><g class="ytick"><text text-anchor="end" x="83.2" y="8.399999999999999" style="font-family: 'Open Sans'; font-size: 24px; fill: rgb(0, 0, 0); fill-opacity: 1; white-space: pre; opacity: 1;" transform="translate(0,388.61)">60</text></g><g class="ytick"><text text-anchor="end" x="83.2" y="8.399999999999999" style="font-family: 'Open Sans'; font-size: 24px; fill: rgb(0, 0, 0); fill-opacity: 1; white-space: pre; opacity: 1;" transform="translate(0,247.82)">80</text></g><g class="ytick"><text text-anchor="end" x="83.2" y="8.399999999999999" style="font-family: 'Open Sans'; font-size: 24px; fill: rgb(0, 0, 0); fill-opacity: 1; white-space: pre; opacity: 1;" transform="translate(0,107.04)">100</text></g></g><g class="overaxes-above"><g class="xy2-x"/><g class="xy2-y"><path class="y2tick ticks crisp" d="M1263.4199999999998,0h5" transform="translate(0,810.96)" style="stroke: rgb(0, 0, 0); stroke-opacity: 0; stroke-width: 1px;"/><path class="y2tick ticks crisp" d="M1263.4199999999998,0h5" transform="translate(0,670.18)" style="stroke: rgb(0, 0, 0); stroke-opacity: 0; stroke-width: 1px;"/><path class="y2tick ticks crisp" d="M1263.4199999999998,0h5" transform="translate(0,529.39)" style="stroke: rgb(0, 0, 0); stroke-opacity: 0; stroke-width: 1px;"/><path class="y2tick ticks crisp" d="M1263.4199999999998,0h5" transform="translate(0,388.61)" style="stroke: rgb(0, 0, 0); stroke-opacity: 0; stroke-width: 1px;"/><path class="y2tick ticks crisp" d="M1263.4199999999998,0h5" transform="translate(0,247.82)" style="stroke: rgb(0, 0, 0); stroke-opacity: 0; stroke-width: 1px;"/><path class="y2tick ticks crisp" d="M1263.4199999999998,0h5" transform="translate(0,107.04)" style="stroke: rgb(0, 0, 0); stroke-opacity: 0; stroke-width: 1px;"/><g class="y2tick"><text text-anchor="start" x="1273.2199999999998" y="8.399999999999999" transform="translate(0,810.96)" style="font-family: 'Open Sans'; font-size: 24px; fill: rgb(0, 0, 0); fill-opacity: 1; white-space: pre; opacity: 1;">0</text></g><g class="y2tick"><text text-anchor="start" x="1273.2199999999998" y="8.399999999999999" style="font-family: 'Open Sans'; font-size: 24px; fill: rgb(0, 0, 0); fill-opacity: 1; white-space: pre; opacity: 1;" transform="translate(0,670.18)">20</text></g><g class="y2tick"><text text-anchor="start" x="1273.2199999999998" y="8.399999999999999" style="font-family: 'Open Sans'; font-size: 24px; fill: rgb(0, 0, 0); fill-opacity: 1; white-space: pre; opacity: 1;" transform="translate(0,529.39)">40</text></g><g class="y2tick"><text text-anchor="start" x="1273.2199999999998" y="8.399999999999999" style="font-family: 'Open Sans'; font-size: 24px; fill: rgb(0, 0, 0); fill-opacity: 1; white-space: pre; opacity: 1;" transform="translate(0,388.61)">60</text></g><g class="y2tick"><text text-anchor="start" x="1273.2199999999998" y="8.399999999999999" style="font-family: 'Open Sans'; font-size: 24px; fill: rgb(0, 0, 0); fill-opacity: 1; white-space: pre; opacity: 1;" transform="translate(0,247.82)">80</text></g><g class="y2tick"><text text-anchor="start" x="1273.2199999999998" y="8.399999999999999" style="font-family: 'Open Sans'; font-size: 24px; fill: rgb(0, 0, 0); fill-opacity: 1; white-space: pre; opacity: 1;" transform="translate(0,107.04)">100</text></g></g></g></g><g class="subplot xy2"/></g><g class="polarlayer"/><g class="ternarylayer"/><g class="geolayer"/><g class="funnelarealayer"/><g class="pielayer"/><g class="iciclelayer"/><g class="treemaplayer"/><g class="sunburstlayer"/><g class="glimages"/><defs id="topdefs-c93fac"><g class="clips"/><clipPath id="legendc93fac"><rect width="226" height="82" x="0" y="0"/></clipPath></defs><g class="layer-above"><g class="imagelayer"/><g class="shapelayer"><path data-index="0" fill-rule="evenodd" d="M1262.03,818L1262.03,100" clip-path="url(#clipc93facx)" style="opacity: 1; stroke: rgb(211, 211, 211); stroke-opacity: 1; fill: rgb(0, 0, 0); fill-opacity: 0; stroke-width: 1px;"/></g></g><g class="infolayer"><g class="legend" pointer-events="all" transform="translate(1361.8600000000001,100)"><rect class="bg" shape-rendering="crispEdges" width="226" height="82" x="0" y="0" style="stroke: rgb(68, 68, 68); stroke-opacity: 1; fill: rgb(0, 0, 0); fill-opacity: 0; stroke-width: 0px;"/><g class="scrollbox" transform="" clip-path="url(#legendc93fac)"><g class="groups"><g class="traces" transform="translate(0,16.9)" style="opacity: 1;"><text class="legendtext" text-anchor="start" x="40" y="6.24" style="font-family: 'Open Sans'; font-size: 16px; fill: rgb(0, 0, 0); fill-opacity: 1; white-space: pre;">System RAM Used (GB)</text><g class="layers" style="opacity: 1;"><g class="legendfill"/><g class="legendlines"><path class="js-line" d="M5,0h30" style="fill: none; stroke: rgb(99, 110, 250); stroke-opacity: 1; stroke-width: 2px;"/></g><g class="legendsymbols"><g class="legendpoints"/></g></g><rect class="legendtoggle" x="0" y="-11.9" width="220.203125" height="23.8" style="fill: rgb(0, 0, 0); fill-opacity: 0;"/></g><g class="traces" transform="translate(0,40.7)" style="opacity: 1;"><text class="legendtext" text-anchor="start" x="40" y="6.24" style="font-family: 'Open Sans'; font-size: 16px; fill: rgb(0, 0, 0); fill-opacity: 1; white-space: pre;">Total GPU Mem Used (GB)</text><g class="layers" style="opacity: 1;"><g class="legendfill"/><g class="legendlines"><path class="js-line" d="M5,0h30" style="fill: none; stroke: rgb(239, 85, 59); stroke-opacity: 1; stroke-width: 2px;"/></g><g class="legendsymbols"><g class="legendpoints"/></g></g><rect class="legendtoggle" x="0" y="-11.9" width="220.203125" height="23.8" style="fill: rgb(0, 0, 0); fill-opacity: 0;"/></g><g class="traces" transform="translate(0,64.5)" style="opacity: 1;"><text class="legendtext" text-anchor="start" x="40" y="6.24" style="font-family: 'Open Sans'; font-size: 16px; fill: rgb(0, 0, 0); fill-opacity: 1; white-space: pre;">Avg GPU Util (%)</text><g class="layers" style="opacity: 1;"><g class="legendfill"/><g class="legendlines"><path class="js-line" d="M5,0h30" style="fill: none; stroke: rgb(0, 204, 150); stroke-opacity: 1; stroke-width: 2px;"/></g><g class="legendsymbols"><g class="legendpoints"/></g></g><rect class="legendtoggle" x="0" y="-11.9" width="220.203125" height="23.8" style="fill: rgb(0, 0, 0); fill-opacity: 0;"/></g></g></g><rect class="scrollbar" rx="20" ry="3" width="0" height="0" x="0" y="0" style="fill: rgb(128, 139, 164); fill-opacity: 1;"/></g><g class="g-gtitle"/><g class="g-xtitle"><text class="xtitle" x="678.2099999999999" y="888.1125" text-anchor="middle" style="font-family: 'Open Sans'; font-size: 29px; fill: rgb(0, 0, 0); opacity: 1; font-weight: normal; white-space: pre;">Time (min)</text></g><g class="g-ytitle" transform="translate(14.1123046875,0)"><text class="ytitle" transform="rotate(-90,11.887500000000003,459)" x="11.887500000000003" y="459" text-anchor="middle" style="font-family: 'Open Sans'; font-size: 29px; fill: rgb(0, 0, 0); opacity: 1; font-weight: normal; white-space: pre;">Memory Used (GB)</text></g><g class="g-y2title"><text class="y2title" transform="rotate(-90,1344.534375,459)" x="1344.534375" y="459" text-anchor="middle" style="font-family: 'Open Sans'; font-size: 29px; fill: rgb(0, 0, 0); opacity: 1; font-weight: normal; white-space: pre;">GPU Utilization (%)</text></g></g></svg>