<svg class="main-svg" xmlns="http://www.w3.org/2000/svg" xmlns:xlink="http://www.w3.org/1999/xlink" width="1600" height="900" style="" viewBox="0 0 1600 900"><rect x="0" y="0" width="1600" height="900" style="fill: rgb(0, 0, 0); fill-opacity: 0;"/><defs id="defs-c7750a"><g class="clips"><clipPath id="clipc7750axyplot" class="plotclip"><rect width="1168.4199999999998" height="718"/></clipPath><clipPath id="clipc7750axy2plot" class="plotclip"><rect width="1168.4199999999998" height="718"/></clipPath><clipPath class="axesclip" id="clipc7750ax"><rect x="94" y="0" width="1168.4199999999998" height="900"/></clipPath><clipPath class="axesclip" id="clipc7750ay"><rect x="0" y="100" width="1600" height="718"/></clipPath><clipPath class="axesclip" id="clipc7750axy"><rect x="94" y="100" width="1168.4199999999998" height="718"/></clipPath><clipPath class="axesclip" id="clipc7750ay2"><rect x="0" y="100" width="1600" height="718"/></clipPath><clipPath class="axesclip" id="clipc7750axy2"><rect x="94" y="100" width="1168.4199999999998" height="718"/></clipPath></g><g class="gradients"/><g class="patterns"/></defs><g class="bglayer"><rect class="bg" x="94" y="100" width="1168.4199999999998" height="718" style="fill: rgb(0, 0, 0); fill-opacity: 0; stroke-width: 0;"/></g><g class="layer-below"><g class="imagelayer"/><g class="shapelayer"/></g><g class="cartesianlayer"><g class="subplot xy"><g class="layer-subplot"><g class="shapelayer"/><g class="imagelayer"/></g><g class="gridlayer"><g class="x"><path class="xgrid crisp" transform="translate(328.43,0)" d="M0,100v718" style="stroke: rgb(255, 255, 255); stroke-opacity: 1; stroke-width: 1px;"/><path class="xgrid crisp" transform="translate(562.4,0)" d="M0,100v718" style="stroke: rgb(255, 255, 255); stroke-opacity: 1; stroke-width: 1px;"/><path class="xgrid crisp" transform="translate(796.36,0)" d="M0,100v718" style="stroke: rgb(255, 255, 255); stroke-opacity: 1; stroke-width: 1px;"/><path class="xgrid crisp" transform="translate(1030.33,0)" d="M0,100v718" style="stroke: rgb(255, 255, 255); stroke-opacity: 1; stroke-width: 1px;"/></g><g class="y"><path class="ygrid crisp" transform="translate(0,670.18)" d="M94,0h1168.4199999999998" style="stroke: rgb(211, 211, 211); stroke-opacity: 1; stroke-width: 1px;"/><path class="ygrid crisp" transform="translate(0,529.39)" d="M94,0h1168.4199999999998" style="stroke: rgb(211, 211, 211); stroke-opacity: 1; stroke-width: 1px;"/><path class="ygrid crisp" transform="translate(0,388.61)" d="M94,0h1168.4199999999998" style="stroke: rgb(211, 211, 211); stroke-opacity: 1; stroke-width: 1px;"/><path class="ygrid crisp" transform="translate(0,247.82)" d="M94,0h1168.4199999999998" style="stroke: rgb(211, 211, 211); stroke-opacity: 1; stroke-width: 1px;"/><path class="ygrid crisp" transform="translate(0,107.04)" d="M94,0h1168.4199999999998" style="stroke: rgb(211, 211, 211); stroke-opacity: 1; stroke-width: 1px;"/></g><g class="y2"><path class="y2grid crisp" transform="translate(0,670.18)" d="M94,0h1168.4199999999998" style="stroke: rgb(211, 211, 211); stroke-opacity: 1; stroke-width: 1px;"/><path class="y2grid crisp" transform="translate(0,529.39)" d="M94,0h1168.4199999999998" style="stroke: rgb(211, 211, 211); stroke-opacity: 1; stroke-width: 1px;"/><path class="y2grid crisp" transform="translate(0,388.61)" d="M94,0h1168.4199999999998" style="stroke: rgb(211, 211, 211); stroke-opacity: 1; stroke-width: 1px;"/><path class="y2grid crisp" transform="translate(0,247.82)" d="M94,0h1168.4199999999998" style="stroke: rgb(211, 211, 211); stroke-opacity: 1; stroke-width: 1px;"/><path class="y2grid crisp" transform="translate(0,107.04)" d="M94,0h1168.4199999999998" style="stroke: rgb(211, 211, 211); stroke-opacity: 1; stroke-width: 1px;"/></g></g><g class="zerolinelayer"><path class="xzl zl crisp" transform="translate(94.47,0)" d="M0,100v718" style="stroke: rgb(211, 211, 211); stroke-opacity: 1; stroke-width: 2px;"/><path class="yzl zl crisp" transform="translate(0,810.96)" d="M94,0h1168.4199999999998" style="stroke: rgb(211, 211, 211); stroke-opacity: 1; stroke-width: 2px;"/><path class="y2zl zl crisp" transform="translate(0,810.96)" d="M94,0h1168.4199999999998" style="stroke: rgb(211, 211, 211); stroke-opacity: 1; stroke-width: 2px;"/></g><path class="xlines-below"/><path class="ylines-below"/><g class="overlines-below"><path class="xy2-x"/><path class="xy2-y"/></g><g class="xaxislayer-below"/><g class="yaxislayer-below"/><g class="overaxes-below"><g class="xy2-x"/><g class="xy2-y"/></g><g class="plot" transform="translate(94,100)" clip-path="url(#clipc7750axyplot)"><g class="scatterlayer mlayer"><g class="trace scatter trace7991a7" style="stroke-miterlimit: 2; opacity: 1;"><g class="fills"/><g class="errorbars"/><g class="lines"><path class="js-line" d="M0.47,687.73L4.37,685.86L9.05,682.78L12.95,679.69L17.63,677.03L26.2,671.29L30.88,668.12L48.04,656.01L52.72,653.38L74.56,638.29L79.24,635.32L91.71,625.42L96.39,622.2L158,579.04L161.9,575.79L192.32,555.18L197,551.82L214.94,538.87L218.84,536.03L232.09,526.99L236.77,524L240.67,520.64L245.35,517.62L253.93,511.3L258.61,508.62L271.09,499.23L275.77,496.35L284.35,490.47L289.02,487.08L297.6,481L302.28,478L319.44,465.3L324.12,462.38L349.86,444.57L354.53,441.68L393.53,413.55L398.21,410.38L416.15,398.51L420.04,395.68L476.98,356.7L481.66,353.88L485.55,350.68L490.23,347.83L494.13,344.61L498.81,341.73L516.75,330.05L520.65,327.22L525.33,324.55L529.23,321.41L547.17,309.75L551.06,306.83L569,294.07L572.9,290.85L590.84,279.07L594.74,276.05L612.68,262.93L616.58,250.1L621.25,475.69L625.93,617.46L629.83,621.82L634.51,588.58L638.41,593.54L643.09,593.05L651.67,592.77L656.35,592.94L664.93,593.45L669.61,589.48L673.51,585.53L678.19,584.32L686.76,582.66L690.66,581.51L695.34,581.59L700.02,573.98L703.92,557.78L708.6,557.71L712.5,560.67L717.18,560.7L721.86,558.44L725.76,558.22L730.44,559.07L734.34,556.26L743.7,554.84L747.6,552.68L752.27,553.33L756.95,552.12L760.85,547.3L765.53,547.99L769.43,549.9L774.11,549.34L778.79,548.09L782.69,545.04L787.37,547.75L791.27,535.47L795.95,537.79L800.63,535.85L809.21,536.4L813.11,535.61L822.46,535.98L826.36,530.01L831.04,534.93L834.94,531.01L839.62,535.77L844.3,537.5L848.2,534.9L852.88,534L856.78,535.15L861.46,532.44L866.14,536.91L870.04,528.9L874.72,531.11L879.4,531.83L883.29,528.33L887.97,533.87L892.65,528.5L896.55,530.18L905.91,531.62L909.81,534.59L914.49,541.09L918.39,539.41L923.07,541.61L927.75,539.48L931.65,533.96L936.33,532.11L953.48,532.57L958.16,531.27L962.06,530.61L966.74,536.37L975.32,533.99L980,534.33L983.9,536.11L988.58,535.74L993.26,534.62L997.16,534.65L1001.84,534.02L1005.74,532.22L1010.42,530.4L1015.1,531.92L1018.99,529.71L1023.67,531.07L1028.35,533.23L1032.25,529.55L1036.93,533.45L1040.83,523.71L1045.51,525.19L1050.19,522.24L1054.09,521.43L1058.77,521.67L1072.03,523.01L1075.93,517.72L1080.61,520.61L1084.5,520.16L1089.18,522.53L1093.86,520.85L1097.76,523.97L1102.44,523.34L1107.12,523.59L1111.02,519.6L1115.7,520.5L1119.6,523.84L1124.28,519.29L1128.96,521.76L1137.54,520.5L1142.22,523.42L1146.12,522.02L1150.79,523.82L1154.69,524.19L1159.37,520.43L1164.05,525.19L1167.95,532.21" style="vector-effect: non-scaling-stroke; fill: none; stroke: rgb(99, 110, 250); stroke-opacity: 1; stroke-width: 2px; opacity: 1;"/></g><g class="points"/><g class="text"/></g><g class="trace scatter trace26e412" style="stroke-miterlimit: 2; opacity: 1;"><g class="fills"/><g class="errorbars"/><g class="lines"><path class="js-line" d="M0.47,705.65L625.93,705.65L629.83,704.69L634.51,689.8L638.41,686.23L695.34,686.23L700.02,624.83L703.92,433.91L708.6,410.28L739.02,410.23L743.7,376.44L747.6,353.91L752.27,353.91L782.69,353.91L787.37,308.87L791.27,297.6L795.95,297.6L1167.95,297.6" style="vector-effect: non-scaling-stroke; fill: none; stroke: rgb(239, 85, 59); stroke-opacity: 1; stroke-width: 2px; opacity: 1;"/></g><g class="points"/><g class="text"/></g></g></g><g class="overplot"><g class="xy2" transform="translate(94,100)" clip-path="url(#clipc7750axy2plot)"><g class="scatterlayer mlayer"><g class="trace scatter traced5bbd9" style="stroke-miterlimit: 2; opacity: 1;"><g class="fills"/><g class="errorbars"/><g class="lines"><path class="js-line" d="M0.47,710.96L629.83,710.96L634.51,709.2L638.41,710.96L643.09,710.96L695.34,710.96L700.02,571.94L708.6,72.15L712.5,700.4L721.86,211.18L725.76,283.33L730.44,285.09L734.34,204.14L739.02,79.19L743.7,316.76L747.6,288.61L752.27,307.97L756.95,190.06L760.85,172.46L765.53,309.73L769.43,315L774.11,161.9L778.79,146.06L782.69,218.22L787.37,438.19L791.27,705.68L795.95,710.96L822.46,710.96L826.36,327.32L831.04,102.07L834.94,670.49L839.62,147.82L844.3,297.41L848.2,40.48L852.88,286.85L856.78,98.55L861.46,167.18L866.14,286.85L870.04,105.59L874.72,212.94L879.4,87.99L883.29,299.17L887.97,260.45L892.65,66.87L896.55,410.03L901.23,72.15L905.91,355.48L909.81,207.66L914.49,710.96L918.39,619.45L923.07,710.96L927.75,705.68L931.65,710.96L958.16,710.96L962.06,26.4L966.74,710.96L970.64,52.79L975.32,320.28L980,255.17L983.9,353.72L988.58,168.94L993.26,51.03L997.16,334.36L1005.74,163.66L1010.42,154.86L1015.1,367.8L1018.99,244.61L1023.67,329.08L1028.35,262.21L1032.25,302.69L1036.93,429.39L1040.83,705.68L1045.51,710.96L1072.03,710.96L1075.93,366.04L1080.61,205.9L1084.5,570.18L1089.18,51.03L1093.86,313.25L1097.76,186.54L1102.44,256.93L1107.12,311.49L1111.02,70.39L1115.7,216.46L1119.6,292.13L1124.28,56.31L1128.96,336.12L1132.86,86.23L1137.54,325.56L1142.22,223.5L1146.12,8.8L1150.79,244.61L1154.69,133.75L1159.37,198.86L1164.05,286.85L1167.95,705.68" style="vector-effect: non-scaling-stroke; fill: none; stroke: rgb(0, 204, 150); stroke-opacity: 1; stroke-width: 2px; opacity: 1;"/></g><g class="points"/><g class="text"/></g></g></g></g><path class="xlines-above crisp" d="M94,818.5H1262.4199999999998M94,99.5H1262.4199999999998" style="fill: none; stroke-width: 1px; stroke: rgb(255, 255, 255); stroke-opacity: 1;"/><path class="ylines-above crisp" d="" style="fill: none; stroke-width: 1px; stroke: rgb(0, 0, 0); stroke-opacity: 0;"/><g class="overlines-above"><path class="xy2-x crisp" d="M0,0" style="fill: none;"/><path class="xy2-y crisp" d="" style="fill: none; stroke-width: 1px; stroke: rgb(0, 0, 0); stroke-opacity: 0;"/></g><g class="xaxislayer-above"><path class="xtick ticks crisp" d="M0,818v-5" transform="translate(328.43,0)" style="stroke: rgb(0, 0, 0); stroke-opacity: 0; stroke-width: 1px;"/><path class="xtick ticks crisp" d="M0,818v-5" transform="translate(562.4,0)" style="stroke: rgb(0, 0, 0); stroke-opacity: 0; stroke-width: 1px;"/><path class="xtick ticks crisp" d="M0,818v-5" transform="translate(796.36,0)" style="stroke: rgb(0, 0, 0); stroke-opacity: 0; stroke-width: 1px;"/><path class="xtick ticks crisp" d="M0,818v-5" transform="translate(1030.33,0)" style="stroke: rgb(0, 0, 0); stroke-opacity: 0; stroke-width: 1px;"/><g class="xtick"><text text-anchor="middle" x="0" y="847.8" transform="translate(94.47,0)" style="font-family: 'Open Sans'; font-size: 24px; fill: rgb(0, 0, 0); fill-opacity: 1; white-space: pre; opacity: 1;">0</text></g><g class="xtick"><text text-anchor="middle" x="0" y="847.8" style="font-family: 'Open Sans'; font-size: 24px; fill: rgb(0, 0, 0); fill-opacity: 1; white-space: pre; opacity: 1;" transform="translate(328.43,0)">5</text></g><g class="xtick"><text text-anchor="middle" x="0" y="847.8" style="font-family: 'Open Sans'; font-size: 24px; fill: rgb(0, 0, 0); fill-opacity: 1; white-space: pre; opacity: 1;" transform="translate(562.4,0)">10</text></g><g class="xtick"><text text-anchor="middle" x="0" y="847.8" style="font-family: 'Open Sans'; font-size: 24px; fill: rgb(0, 0, 0); fill-opacity: 1; white-space: pre; opacity: 1;" transform="translate(796.36,0)">15</text></g><g class="xtick"><text text-anchor="middle" x="0" y="847.8" style="font-family: 'Open Sans'; font-size: 24px; fill: rgb(0, 0, 0); fill-opacity: 1; white-space: pre; opacity: 1;" transform="translate(1030.33,0)">20</text></g></g><g class="yaxislayer-above"><path class="ytick ticks crisp" d="M93,0h-5" transform="translate(0,810.96)" style="stroke: rgb(0, 0, 0); stroke-opacity: 0; stroke-width: 1px;"/><path class="ytick ticks crisp" d="M93,0h-5" transform="translate(0,670.18)" style="stroke: rgb(0, 0, 0); stroke-opacity: 0; stroke-width: 1px;"/><path class="ytick ticks crisp" d="M93,0h-5" transform="translate(0,529.39)" style="stroke: rgb(0, 0, 0); stroke-opacity: 0; stroke-width: 1px;"/><path class="ytick ticks crisp" d="M93,0h-5" transform="translate(0,388.61)" style="stroke: rgb(0, 0, 0); stroke-opacity: 0; stroke-width: 1px;"/><path class="ytick ticks crisp" d="M93,0h-5" transform="translate(0,247.82)" style="stroke: rgb(0, 0, 0); stroke-opacity: 0; stroke-width: 1px;"/><path class="ytick ticks crisp" d="M93,0h-5" transform="translate(0,107.04)" style="stroke: rgb(0, 0, 0); stroke-opacity: 0; stroke-width: 1px;"/><g class="ytick"><text text-anchor="end" x="83.2" y="8.399999999999999" transform="translate(0,810.96)" style="font-family: 'Open Sans'; font-size: 24px; fill: rgb(0, 0, 0); fill-opacity: 1; white-space: pre; opacity: 1;">0</text></g><g class="ytick"><text text-anchor="end" x="83.2" y="8.399999999999999" style="font-family: 'Open Sans'; font-size: 24px; fill: rgb(0, 0, 0); fill-opacity: 1; white-space: pre; opacity: 1;" transform="translate(0,670.18)">20</text></g><g class="ytick"><text text-anchor="end" x="83.2" y="8.399999999999999" style="font-family: 'Open Sans'; font-size: 24px; fill: rgb(0, 0, 0); fill-opacity: 1; white-space: pre; opacity: 1;" transform="translate(0,529.39)">40</text></g><g class="ytick"><text text-anchor="end" x="83.2" y="8.399999999999999" style="font-family: 'Open Sans'; font-size: 24px; fill: rgb(0, 0, 0); fill-opacity: 1; white-space: pre; opacity: 1;" transform="translate(0,388.61)">60</text></g><g class="ytick"><text text-anchor="end" x="83.2" y="8.399999999999999" style="font-family: 'Open Sans'; font-size: 24px; fill: rgb(0, 0, 0); fill-opacity: 1; white-space: pre; opacity: 1;" transform="translate(0,247.82)">80</text></g><g class="ytick"><text text-anchor="end" x="83.2" y="8.399999999999999" style="font-family: 'Open Sans'; font-size: 24px; fill: rgb(0, 0, 0); fill-opacity: 1; white-space: pre; opacity: 1;" transform="translate(0,107.04)">100</text></g></g><g class="overaxes-above"><g class="xy2-x"/><g class="xy2-y"><path class="y2tick ticks crisp" d="M1263.4199999999998,0h5" transform="translate(0,810.96)" style="stroke: rgb(0, 0, 0); stroke-opacity: 0; stroke-width: 1px;"/><path class="y2tick ticks crisp" d="M1263.4199999999998,0h5" transform="translate(0,670.18)" style="stroke: rgb(0, 0, 0); stroke-opacity: 0; stroke-width: 1px;"/><path class="y2tick ticks crisp" d="M1263.4199999999998,0h5" transform="translate(0,529.39)" style="stroke: rgb(0, 0, 0); stroke-opacity: 0; stroke-width: 1px;"/><path class="y2tick ticks crisp" d="M1263.4199999999998,0h5" transform="translate(0,388.61)" style="stroke: rgb(0, 0, 0); stroke-opacity: 0; stroke-width: 1px;"/><path class="y2tick ticks crisp" d="M1263.4199999999998,0h5" transform="translate(0,247.82)" style="stroke: rgb(0, 0, 0); stroke-opacity: 0; stroke-width: 1px;"/><path class="y2tick ticks crisp" d="M1263.4199999999998,0h5" transform="translate(0,107.04)" style="stroke: rgb(0, 0, 0); stroke-opacity: 0; stroke-width: 1px;"/><g class="y2tick"><text text-anchor="start" x="1273.2199999999998" y="8.399999999999999" transform="translate(0,810.96)" style="font-family: 'Open Sans'; font-size: 24px; fill: rgb(0, 0, 0); fill-opacity: 1; white-space: pre; opacity: 1;">0</text></g><g class="y2tick"><text text-anchor="start" x="1273.2199999999998" y="8.399999999999999" style="font-family: 'Open Sans'; font-size: 24px; fill: rgb(0, 0, 0); fill-opacity: 1; white-space: pre; opacity: 1;" transform="translate(0,670.18)">20</text></g><g class="y2tick"><text text-anchor="start" x="1273.2199999999998" y="8.399999999999999" style="font-family: 'Open Sans'; font-size: 24px; fill: rgb(0, 0, 0); fill-opacity: 1; white-space: pre; opacity: 1;" transform="translate(0,529.39)">40</text></g><g class="y2tick"><text text-anchor="start" x="1273.2199999999998" y="8.399999999999999" style="font-family: 'Open Sans'; font-size: 24px; fill: rgb(0, 0, 0); fill-opacity: 1; white-space: pre; opacity: 1;" transform="translate(0,388.61)">60</text></g><g class="y2tick"><text text-anchor="start" x="1273.2199999999998" y="8.399999999999999" style="font-family: 'Open Sans'; font-size: 24px; fill: rgb(0, 0, 0); fill-opacity: 1; white-space: pre; opacity: 1;" transform="translate(0,247.82)">80</text></g><g class="y2tick"><text text-anchor="start" x="1273.2199999999998" y="8.399999999999999" style="font-family: 'Open Sans'; font-size: 24px; fill: rgb(0, 0, 0); fill-opacity: 1; white-space: pre; opacity: 1;" transform="translate(0,107.04)">100</text></g></g></g></g><g class="subplot xy2"/></g><g class="polarlayer"/><g class="ternarylayer"/><g class="geolayer"/><g class="funnelarealayer"/><g class="pielayer"/><g class="iciclelayer"/><g class="treemaplayer"/><g class="sunburstlayer"/><g class="glimages"/><defs id="topdefs-c7750a"><g class="clips"/><clipPath id="legendc7750a"><rect width="226" height="82" x="0" y="0"/></clipPath></defs><g class="layer-above"><g class="imagelayer"/><g class="shapelayer"><path data-index="0" fill-rule="evenodd" d="M1261.95,818L1261.95,100" clip-path="url(#clipc7750ax)" style="opacity: 1; stroke: rgb(211, 211, 211); stroke-opacity: 1; fill: rgb(0, 0, 0); fill-opacity: 0; stroke-width: 1px;"/></g></g><g class="infolayer"><g class="legend" pointer-events="all" transform="translate(1361.8600000000001,100)"><rect class="bg" shape-rendering="crispEdges" width="226" height="82" x="0" y="0" style="stroke: rgb(68, 68, 68); stroke-opacity: 1; fill: rgb(0, 0, 0); fill-opacity: 0; stroke-width: 0px;"/><g class="scrollbox" transform="" clip-path="url(#legendc7750a)"><g class="groups"><g class="traces" transform="translate(0,16.9)" style="opacity: 1;"><text class="legendtext" text-anchor="start" x="40" y="6.24" style="font-family: 'Open Sans'; font-size: 16px; fill: rgb(0, 0, 0); fill-opacity: 1; white-space: pre;">System RAM Used (GB)</text><g class="layers" style="opacity: 1;"><g class="legendfill"/><g class="legendlines"><path class="js-line" d="M5,0h30" style="fill: none; stroke: rgb(99, 110, 250); stroke-opacity: 1; stroke-width: 2px;"/></g><g class="legendsymbols"><g class="legendpoints"/></g></g><rect class="legendtoggle" x="0" y="-11.9" width="220.203125" height="23.8" style="fill: rgb(0, 0, 0); fill-opacity: 0;"/></g><g class="traces" transform="translate(0,40.7)" style="opacity: 1;"><text class="legendtext" text-anchor="start" x="40" y="6.24" style="font-family: 'Open Sans'; font-size: 16px; fill: rgb(0, 0, 0); fill-opacity: 1; white-space: pre;">Total GPU Mem Used (GB)</text><g class="layers" style="opacity: 1;"><g class="legendfill"/><g class="legendlines"><path class="js-line" d="M5,0h30" style="fill: none; stroke: rgb(239, 85, 59); stroke-opacity: 1; stroke-width: 2px;"/></g><g class="legendsymbols"><g class="legendpoints"/></g></g><rect class="legendtoggle" x="0" y="-11.9" width="220.203125" height="23.8" style="fill: rgb(0, 0, 0); fill-opacity: 0;"/></g><g class="traces" transform="translate(0,64.5)" style="opacity: 1;"><text class="legendtext" text-anchor="start" x="40" y="6.24" style="font-family: 'Open Sans'; font-size: 16px; fill: rgb(0, 0, 0); fill-opacity: 1; white-space: pre;">Avg GPU Util (%)</text><g class="layers" style="opacity: 1;"><g class="legendfill"/><g class="legendlines"><path class="js-line" d="M5,0h30" style="fill: none; stroke: rgb(0, 204, 150); stroke-opacity: 1; stroke-width: 2px;"/></g><g class="legendsymbols"><g class="legendpoints"/></g></g><rect class="legendtoggle" x="0" y="-11.9" width="220.203125" height="23.8" style="fill: rgb(0, 0, 0); fill-opacity: 0;"/></g></g></g><rect class="scrollbar" rx="20" ry="3" width="0" height="0" x="0" y="0" style="fill: rgb(128, 139, 164); fill-opacity: 1;"/></g><g class="g-gtitle"/><g class="g-xtitle"><text class="xtitle" x="678.2099999999999" y="888.1125" text-anchor="middle" style="font-family: 'Open Sans'; font-size: 29px; fill: rgb(0, 0, 0); opacity: 1; font-weight: normal; white-space: pre;">Time (min)</text></g><g class="g-ytitle" transform="translate(14.1123046875,0)"><text class="ytitle" transform="rotate(-90,11.887500000000003,459)" x="11.887500000000003" y="459" text-anchor="middle" style="font-family: 'Open Sans'; font-size: 29px; fill: rgb(0, 0, 0); opacity: 1; font-weight: normal; white-space: pre;">Memory Used (GB)</text></g><g class="g-y2title"><text class="y2title" transform="rotate(-90,1344.534375,459)" x="1344.534375" y="459" text-anchor="middle" style="font-family: 'Open Sans'; font-size: 29px; fill: rgb(0, 0, 0); opacity: 1; font-weight: normal; white-space: pre;">GPU Utilization (%)</text></g></g></svg>