<svg class="main-svg" xmlns="http://www.w3.org/2000/svg" xmlns:xlink="http://www.w3.org/1999/xlink" width="1600" height="900" style="" viewBox="0 0 1600 900"><rect x="0" y="0" width="1600" height="900" style="fill: rgb(0, 0, 0); fill-opacity: 0;"/><defs id="defs-0e78be"><g class="clips"><clipPath id="clip0e78bexyplot" class="plotclip"><rect width="1168.4199999999998" height="718"/></clipPath><clipPath id="clip0e78bexy2plot" class="plotclip"><rect width="1168.4199999999998" height="718"/></clipPath><clipPath class="axesclip" id="clip0e78bex"><rect x="94" y="0" width="1168.4199999999998" height="900"/></clipPath><clipPath class="axesclip" id="clip0e78bey"><rect x="0" y="100" width="1600" height="718"/></clipPath><clipPath class="axesclip" id="clip0e78bexy"><rect x="94" y="100" width="1168.4199999999998" height="718"/></clipPath><clipPath class="axesclip" id="clip0e78bey2"><rect x="0" y="100" width="1600" height="718"/></clipPath><clipPath class="axesclip" id="clip0e78bexy2"><rect x="94" y="100" width="1168.4199999999998" height="718"/></clipPath></g><g class="gradients"/><g class="patterns"/></defs><g class="bglayer"><rect class="bg" x="94" y="100" width="1168.4199999999998" height="718" style="fill: rgb(0, 0, 0); fill-opacity: 0; stroke-width: 0;"/></g><g class="layer-below"><g class="imagelayer"/><g class="shapelayer"/></g><g class="cartesianlayer"><g class="subplot xy"><g class="layer-subplot"><g class="shapelayer"/><g class="imagelayer"/></g><g class="gridlayer"><g class="x"><path class="xgrid crisp" transform="translate(279.03,0)" d="M0,100v718" style="stroke: rgb(255, 255, 255); stroke-opacity: 1; stroke-width: 1px;"/><path class="xgrid crisp" transform="translate(463.69,0)" d="M0,100v718" style="stroke: rgb(255, 255, 255); stroke-opacity: 1; stroke-width: 1px;"/><path class="xgrid crisp" transform="translate(648.36,0)" d="M0,100v718" style="stroke: rgb(255, 255, 255); stroke-opacity: 1; stroke-width: 1px;"/><path class="xgrid crisp" transform="translate(833.02,0)" d="M0,100v718" style="stroke: rgb(255, 255, 255); stroke-opacity: 1; stroke-width: 1px;"/><path class="xgrid crisp" transform="translate(1017.68,0)" d="M0,100v718" style="stroke: rgb(255, 255, 255); stroke-opacity: 1; stroke-width: 1px;"/><path class="xgrid crisp" transform="translate(1202.34,0)" d="M0,100v718" style="stroke: rgb(255, 255, 255); stroke-opacity: 1; stroke-width: 1px;"/></g><g class="y"><path class="ygrid crisp" transform="translate(0,670.18)" d="M94,0h1168.4199999999998" style="stroke: rgb(211, 211, 211); stroke-opacity: 1; stroke-width: 1px;"/><path class="ygrid crisp" transform="translate(0,529.39)" d="M94,0h1168.4199999999998" style="stroke: rgb(211, 211, 211); stroke-opacity: 1; stroke-width: 1px;"/><path class="ygrid crisp" transform="translate(0,388.61)" d="M94,0h1168.4199999999998" style="stroke: rgb(211, 211, 211); stroke-opacity: 1; stroke-width: 1px;"/><path class="ygrid crisp" transform="translate(0,247.82)" d="M94,0h1168.4199999999998" style="stroke: rgb(211, 211, 211); stroke-opacity: 1; stroke-width: 1px;"/><path class="ygrid crisp" transform="translate(0,107.04)" d="M94,0h1168.4199999999998" style="stroke: rgb(211, 211, 211); stroke-opacity: 1; stroke-width: 1px;"/></g><g class="y2"><path class="y2grid crisp" transform="translate(0,670.18)" d="M94,0h1168.4199999999998" style="stroke: rgb(211, 211, 211); stroke-opacity: 1; stroke-width: 1px;"/><path class="y2grid crisp" transform="translate(0,529.39)" d="M94,0h1168.4199999999998" style="stroke: rgb(211, 211, 211); stroke-opacity: 1; stroke-width: 1px;"/><path class="y2grid crisp" transform="translate(0,388.61)" d="M94,0h1168.4199999999998" style="stroke: rgb(211, 211, 211); stroke-opacity: 1; stroke-width: 1px;"/><path class="y2grid crisp" transform="translate(0,247.82)" d="M94,0h1168.4199999999998" style="stroke: rgb(211, 211, 211); stroke-opacity: 1; stroke-width: 1px;"/><path class="y2grid crisp" transform="translate(0,107.04)" d="M94,0h1168.4199999999998" style="stroke: rgb(211, 211, 211); stroke-opacity: 1; stroke-width: 1px;"/></g></g><g class="zerolinelayer"><path class="xzl zl crisp" transform="translate(94.37,0)" d="M0,100v718" style="stroke: rgb(211, 211, 211); stroke-opacity: 1; stroke-width: 2px;"/><path class="yzl zl crisp" transform="translate(0,810.96)" d="M94,0h1168.4199999999998" style="stroke: rgb(211, 211, 211); stroke-opacity: 1; stroke-width: 2px;"/><path class="y2zl zl crisp" transform="translate(0,810.96)" d="M94,0h1168.4199999999998" style="stroke: rgb(211, 211, 211); stroke-opacity: 1; stroke-width: 2px;"/></g><path class="xlines-below"/><path class="ylines-below"/><g class="overlines-below"><path class="xy2-x"/><path class="xy2-y"/></g><g class="xaxislayer-below"/><g class="yaxislayer-below"/><g class="overaxes-below"><g class="xy2-x"/><g class="xy2-y"/></g><g class="plot" transform="translate(94,100)" clip-path="url(#clip0e78bexyplot)"><g class="scatterlayer mlayer"><g class="trace scatter tracedbc540" style="stroke-miterlimit: 2; opacity: 1;"><g class="fills"/><g class="errorbars"/><g class="lines"><path class="js-line" d="M0.37,687.84L4.06,686.11L7.76,682.98L14.53,677.11L18.22,674.3L31.76,662.21L35.46,659.21L49,647.42L52.69,644.77L80.39,620.17L83.47,617.35L97.62,605.74L100.7,602.6L125.32,580.8L128.4,577.57L156.1,554.15L159.79,550.32L162.87,546.85L166.57,543.98L177.03,535.01L180.72,532.17L187.49,526L190.57,523.25L211.5,504.79L215.19,501.65L225.04,492.53L228.74,489.66L245.97,474.16L249.66,470.4L256.43,464.49L260.13,461.89L273.67,449.79L277.36,447.03L287.21,437.72L290.9,434.71L297.68,429.29L301.37,425.71L339.53,393L342.61,389.95L356.77,378.15L359.85,375.26L374,363.25L377.08,360.18L391.24,348.48L394.32,345.44L425.71,319.62L428.79,316.57L449.71,299.47L453.41,296.27L460.18,289.98L463.87,287.17L490.96,262.62L494.65,245.86L498.34,511.79L501.42,617.62L505.11,626.08L508.19,587.16L511.88,587.84L515.58,587.62L529.12,588.24L532.2,586.9L535.89,582.05L539.58,578.98L546.35,578.18L549.43,577.26L553.13,577.35L556.82,566.33L559.9,555.21L563.59,555.72L566.67,555.94L570.36,551.08L577.13,540.03L580.82,536.93L591.29,529.87L594.37,529.52L601.75,528.29L604.83,526.45L608.52,526.89L611.6,530.85L615.29,513.62L618.99,519.71L639.3,519.6L642.99,514.35L646.07,510.65L649.77,509.18L660.23,506.6L663.31,506.62L667,504.9L670.08,504.39L673.77,504.61L676.85,502.75L680.54,503.7L684.24,503.41L687.31,503.87L691.01,502.77L697.78,504.86L701.47,504.87L708.24,503.17L711.93,502.67L718.71,502.41L722.4,500.48L725.48,501.28L729.17,500.9L732.25,502.06L735.94,501L756.87,498.96L759.95,497.82L763.64,497.75L767.33,498.9L770.41,497.34L774.1,499.43L777.8,500.37L780.88,498.78L784.57,498.8L787.65,497.08L798.11,496.29L801.8,497.1L805.5,496.33L808.57,496.46L812.27,497.64L815.35,511.01L819.04,506.11L822.73,508.68L829.5,501.64L832.58,500L843.05,498.77L846.74,500.44L849.82,499.3L853.51,497.01L856.59,499.59L860.28,500.48L867.05,501.58L870.74,502.33L874.44,500.58L877.52,501.61L881.21,503.68L884.29,504.23L894.75,503.41L898.44,503.17L905.21,502.83L908.91,502.09L919.37,500.68L922.45,501.68L926.14,503.21L929.22,502.75L936.61,501.67L939.68,500.55L950.15,499.49L953.84,498.97L960.61,499.1L964.31,508.34L967.38,493.07L971.08,491.47L974.16,489.03L977.85,489L991.39,487.94L995.08,487.09L998.78,484.84L1001.85,484.5L1005.55,487.31L1008.63,488.19L1012.32,489.69L1016.01,489.7L1022.78,490.19L1025.86,488.45L1029.55,490.27L1033.25,490.45L1036.32,491.37L1040.02,491.03L1050.48,491.92L1053.56,493.21L1057.25,492.35L1060.95,493.1L1064.02,493.18L1067.72,491.17L1074.49,493.95L1078.18,494.59L1084.95,493.89L1088.65,494.8L1095.42,493.1L1098.49,494.64L1102.19,493.73L1105.88,495.26L1108.96,493.94L1112.65,495.48L1116.35,495.17L1119.42,496.13L1123.12,496L1126.19,493.87L1129.89,492.95L1133.58,492.86L1136.66,493.65L1140.35,493.19L1147.12,493.19L1150.82,491.62L1160.66,491.38L1164.36,493.23L1168.05,505.79" style="vector-effect: non-scaling-stroke; fill: none; stroke: rgb(99, 110, 250); stroke-opacity: 1; stroke-width: 2px; opacity: 1;"/></g><g class="points"/><g class="text"/></g><g class="trace scatter trace41fa98" style="stroke-miterlimit: 2; opacity: 1;"><g class="fills"/><g class="errorbars"/><g class="lines"><path class="js-line" d="M0.37,705.65L501.42,705.65L505.11,703.98L508.19,690.6L511.88,690.19L553.13,690.19L556.82,611.6L559.9,558.99L563.59,558.99L1168.05,558.93" style="vector-effect: non-scaling-stroke; fill: none; stroke: rgb(239, 85, 59); stroke-opacity: 1; stroke-width: 2px; opacity: 1;"/></g><g class="points"/><g class="text"/></g></g></g><g class="overplot"><g class="xy2" transform="translate(94,100)" clip-path="url(#clip0e78bexy2plot)"><g class="scatterlayer mlayer"><g class="trace scatter trace858f57" style="stroke-miterlimit: 2; opacity: 1;"><g class="fills"/><g class="errorbars"/><g class="lines"><path class="js-line" d="M0.37,710.96L505.11,710.96L508.19,705.68L511.88,710.96L515.58,710.96L553.13,710.96L556.82,517.38L559.9,112.63L563.59,710.96L566.67,619.45L570.36,165.42L574.05,234.05L577.13,177.74L580.82,198.86L583.9,228.77L587.6,237.57L591.29,109.11L594.37,355.48L598.06,489.23L604.83,218.22L608.52,212.94L611.6,710.96L615.29,705.68L618.99,710.96L622.07,710.96L663.31,710.96L667,482.19L670.08,33.44L673.77,584.25L676.85,209.42L680.54,197.1L684.24,63.35L687.31,420.59L691.01,184.78L694.7,197.1L701.47,139.02L705.16,158.38L708.24,163.66L711.93,58.07L715.01,293.89L718.71,211.18L722.4,367.8L725.48,311.49L729.17,216.46L732.25,285.09L735.94,28.16L739.63,325.56L742.71,197.1L746.41,246.37L750.1,329.08L753.18,28.16L756.87,119.67L759.95,116.15L763.64,181.26L767.33,355.48L770.41,84.47L774.1,403L777.8,40.48L780.88,100.31L784.57,174.22L787.65,58.07L791.34,248.13L795.03,160.14L798.11,149.58L801.8,411.79L805.5,14.08L808.57,244.61L812.27,211.18L815.35,710.96L822.73,710.96L825.81,705.68L829.5,710.96L832.58,710.96L846.74,710.96L849.82,188.3L853.51,519.14L856.59,42.24L860.28,380.12L863.97,360.76L867.05,126.71L870.74,177.74L874.44,100.31L877.52,202.38L881.21,357.24L884.29,388.92L887.98,329.08L891.67,100.31L894.75,154.86L898.44,242.85L901.52,388.92L905.21,357.24L908.91,228.77L911.99,241.09L915.68,297.41L919.37,188.3L922.45,227.01L926.14,116.15L929.22,219.98L932.91,239.33L936.61,332.6L939.68,230.53L943.38,234.05L946.46,330.84L950.15,146.06L953.84,139.02L956.92,204.14L960.61,87.99L964.31,710.96L967.38,703.92L971.08,710.96L974.16,710.96L991.39,710.96L995.08,86.23L998.78,436.43L1001.85,262.21L1005.55,218.22L1008.63,309.73L1012.32,184.78L1016.01,24.64L1019.09,306.21L1022.78,91.51L1025.86,168.94L1029.55,381.88L1033.25,110.87L1036.32,186.54L1040.02,77.43L1043.71,371.32L1046.79,315L1050.48,191.82L1053.56,170.7L1057.25,42.24L1060.95,357.24L1064.02,172.46L1071.41,262.21L1074.49,38.72L1078.18,366.04L1081.26,163.66L1084.95,184.78L1088.65,274.53L1091.72,181.26L1095.42,390.68L1098.49,167.18L1102.19,139.02L1105.88,387.16L1108.96,40.48L1112.65,174.22L1116.35,197.1L1119.42,322.04L1123.12,256.93L1126.19,184.78L1129.89,123.19L1133.58,63.35L1136.66,318.52L1140.35,170.7L1143.43,258.69L1147.12,198.86L1150.82,160.14L1153.89,411.79L1157.59,211.18L1160.66,116.15L1164.36,309.73L1168.05,710.96" style="vector-effect: non-scaling-stroke; fill: none; stroke: rgb(0, 204, 150); stroke-opacity: 1; stroke-width: 2px; opacity: 1;"/></g><g class="points"/><g class="text"/></g></g></g></g><path class="xlines-above crisp" d="M94,818.5H1262.4199999999998M94,99.5H1262.4199999999998" style="fill: none; stroke-width: 1px; stroke: rgb(255, 255, 255); stroke-opacity: 1;"/><path class="ylines-above crisp" d="" style="fill: none; stroke-width: 1px; stroke: rgb(0, 0, 0); stroke-opacity: 0;"/><g class="overlines-above"><path class="xy2-x crisp" d="M0,0" style="fill: none;"/><path class="xy2-y crisp" d="" style="fill: none; stroke-width: 1px; stroke: rgb(0, 0, 0); stroke-opacity: 0;"/></g><g class="xaxislayer-above"><path class="xtick ticks crisp" d="M0,818v-5" transform="translate(279.03,0)" style="stroke: rgb(0, 0, 0); stroke-opacity: 0; stroke-width: 1px;"/><path class="xtick ticks crisp" d="M0,818v-5" transform="translate(463.69,0)" style="stroke: rgb(0, 0, 0); stroke-opacity: 0; stroke-width: 1px;"/><path class="xtick ticks crisp" d="M0,818v-5" transform="translate(648.36,0)" style="stroke: rgb(0, 0, 0); stroke-opacity: 0; stroke-width: 1px;"/><path class="xtick ticks crisp" d="M0,818v-5" transform="translate(833.02,0)" style="stroke: rgb(0, 0, 0); stroke-opacity: 0; stroke-width: 1px;"/><path class="xtick ticks crisp" d="M0,818v-5" transform="translate(1017.68,0)" style="stroke: rgb(0, 0, 0); stroke-opacity: 0; stroke-width: 1px;"/><path class="xtick ticks crisp" d="M0,818v-5" transform="translate(1202.34,0)" style="stroke: rgb(0, 0, 0); stroke-opacity: 0; stroke-width: 1px;"/><g class="xtick"><text text-anchor="middle" x="0" y="847.8" transform="translate(94.37,0)" style="font-family: 'Open Sans'; font-size: 24px; fill: rgb(0, 0, 0); fill-opacity: 1; white-space: pre; opacity: 1;">0</text></g><g class="xtick"><text text-anchor="middle" x="0" y="847.8" style="font-family: 'Open Sans'; font-size: 24px; fill: rgb(0, 0, 0); fill-opacity: 1; white-space: pre; opacity: 1;" transform="translate(279.03,0)">5</text></g><g class="xtick"><text text-anchor="middle" x="0" y="847.8" style="font-family: 'Open Sans'; font-size: 24px; fill: rgb(0, 0, 0); fill-opacity: 1; white-space: pre; opacity: 1;" transform="translate(463.69,0)">10</text></g><g class="xtick"><text text-anchor="middle" x="0" y="847.8" style="font-family: 'Open Sans'; font-size: 24px; fill: rgb(0, 0, 0); fill-opacity: 1; white-space: pre; opacity: 1;" transform="translate(648.36,0)">15</text></g><g class="xtick"><text text-anchor="middle" x="0" y="847.8" style="font-family: 'Open Sans'; font-size: 24px; fill: rgb(0, 0, 0); fill-opacity: 1; white-space: pre; opacity: 1;" transform="translate(833.02,0)">20</text></g><g class="xtick"><text text-anchor="middle" x="0" y="847.8" style="font-family: 'Open Sans'; font-size: 24px; fill: rgb(0, 0, 0); fill-opacity: 1; white-space: pre; opacity: 1;" transform="translate(1017.68,0)">25</text></g><g class="xtick"><text text-anchor="middle" x="0" y="847.8" style="font-family: 'Open Sans'; font-size: 24px; fill: rgb(0, 0, 0); fill-opacity: 1; white-space: pre; opacity: 1;" transform="translate(1202.34,0)">30</text></g></g><g class="yaxislayer-above"><path class="ytick ticks crisp" d="M93,0h-5" transform="translate(0,810.96)" style="stroke: rgb(0, 0, 0); stroke-opacity: 0; stroke-width: 1px;"/><path class="ytick ticks crisp" d="M93,0h-5" transform="translate(0,670.18)" style="stroke: rgb(0, 0, 0); stroke-opacity: 0; stroke-width: 1px;"/><path class="ytick ticks crisp" d="M93,0h-5" transform="translate(0,529.39)" style="stroke: rgb(0, 0, 0); stroke-opacity: 0; stroke-width: 1px;"/><path class="ytick ticks crisp" d="M93,0h-5" transform="translate(0,388.61)" style="stroke: rgb(0, 0, 0); stroke-opacity: 0; stroke-width: 1px;"/><path class="ytick ticks crisp" d="M93,0h-5" transform="translate(0,247.82)" style="stroke: rgb(0, 0, 0); stroke-opacity: 0; stroke-width: 1px;"/><path class="ytick ticks crisp" d="M93,0h-5" transform="translate(0,107.04)" style="stroke: rgb(0, 0, 0); stroke-opacity: 0; stroke-width: 1px;"/><g class="ytick"><text text-anchor="end" x="83.2" y="8.399999999999999" transform="translate(0,810.96)" style="font-family: 'Open Sans'; font-size: 24px; fill: rgb(0, 0, 0); fill-opacity: 1; white-space: pre; opacity: 1;">0</text></g><g class="ytick"><text text-anchor="end" x="83.2" y="8.399999999999999" style="font-family: 'Open Sans'; font-size: 24px; fill: rgb(0, 0, 0); fill-opacity: 1; white-space: pre; opacity: 1;" transform="translate(0,670.18)">20</text></g><g class="ytick"><text text-anchor="end" x="83.2" y="8.399999999999999" style="font-family: 'Open Sans'; font-size: 24px; fill: rgb(0, 0, 0); fill-opacity: 1; white-space: pre; opacity: 1;" transform="translate(0,529.39)">40</text></g><g class="ytick"><text text-anchor="end" x="83.2" y="8.399999999999999" style="font-family: 'Open Sans'; font-size: 24px; fill: rgb(0, 0, 0); fill-opacity: 1; white-space: pre; opacity: 1;" transform="translate(0,388.61)">60</text></g><g class="ytick"><text text-anchor="end" x="83.2" y="8.399999999999999" style="font-family: 'Open Sans'; font-size: 24px; fill: rgb(0, 0, 0); fill-opacity: 1; white-space: pre; opacity: 1;" transform="translate(0,247.82)">80</text></g><g class="ytick"><text text-anchor="end" x="83.2" y="8.399999999999999" style="font-family: 'Open Sans'; font-size: 24px; fill: rgb(0, 0, 0); fill-opacity: 1; white-space: pre; opacity: 1;" transform="translate(0,107.04)">100</text></g></g><g class="overaxes-above"><g class="xy2-x"/><g class="xy2-y"><path class="y2tick ticks crisp" d="M1263.4199999999998,0h5" transform="translate(0,810.96)" style="stroke: rgb(0, 0, 0); stroke-opacity: 0; stroke-width: 1px;"/><path class="y2tick ticks crisp" d="M1263.4199999999998,0h5" transform="translate(0,670.18)" style="stroke: rgb(0, 0, 0); stroke-opacity: 0; stroke-width: 1px;"/><path class="y2tick ticks crisp" d="M1263.4199999999998,0h5" transform="translate(0,529.39)" style="stroke: rgb(0, 0, 0); stroke-opacity: 0; stroke-width: 1px;"/><path class="y2tick ticks crisp" d="M1263.4199999999998,0h5" transform="translate(0,388.61)" style="stroke: rgb(0, 0, 0); stroke-opacity: 0; stroke-width: 1px;"/><path class="y2tick ticks crisp" d="M1263.4199999999998,0h5" transform="translate(0,247.82)" style="stroke: rgb(0, 0, 0); stroke-opacity: 0; stroke-width: 1px;"/><path class="y2tick ticks crisp" d="M1263.4199999999998,0h5" transform="translate(0,107.04)" style="stroke: rgb(0, 0, 0); stroke-opacity: 0; stroke-width: 1px;"/><g class="y2tick"><text text-anchor="start" x="1273.2199999999998" y="8.399999999999999" transform="translate(0,810.96)" style="font-family: 'Open Sans'; font-size: 24px; fill: rgb(0, 0, 0); fill-opacity: 1; white-space: pre; opacity: 1;">0</text></g><g class="y2tick"><text text-anchor="start" x="1273.2199999999998" y="8.399999999999999" style="font-family: 'Open Sans'; font-size: 24px; fill: rgb(0, 0, 0); fill-opacity: 1; white-space: pre; opacity: 1;" transform="translate(0,670.18)">20</text></g><g class="y2tick"><text text-anchor="start" x="1273.2199999999998" y="8.399999999999999" style="font-family: 'Open Sans'; font-size: 24px; fill: rgb(0, 0, 0); fill-opacity: 1; white-space: pre; opacity: 1;" transform="translate(0,529.39)">40</text></g><g class="y2tick"><text text-anchor="start" x="1273.2199999999998" y="8.399999999999999" style="font-family: 'Open Sans'; font-size: 24px; fill: rgb(0, 0, 0); fill-opacity: 1; white-space: pre; opacity: 1;" transform="translate(0,388.61)">60</text></g><g class="y2tick"><text text-anchor="start" x="1273.2199999999998" y="8.399999999999999" style="font-family: 'Open Sans'; font-size: 24px; fill: rgb(0, 0, 0); fill-opacity: 1; white-space: pre; opacity: 1;" transform="translate(0,247.82)">80</text></g><g class="y2tick"><text text-anchor="start" x="1273.2199999999998" y="8.399999999999999" style="font-family: 'Open Sans'; font-size: 24px; fill: rgb(0, 0, 0); fill-opacity: 1; white-space: pre; opacity: 1;" transform="translate(0,107.04)">100</text></g></g></g></g><g class="subplot xy2"/></g><g class="polarlayer"/><g class="ternarylayer"/><g class="geolayer"/><g class="funnelarealayer"/><g class="pielayer"/><g class="iciclelayer"/><g class="treemaplayer"/><g class="sunburstlayer"/><g class="glimages"/><defs id="topdefs-0e78be"><g class="clips"/><clipPath id="legend0e78be"><rect width="226" height="82" x="0" y="0"/></clipPath></defs><g class="layer-above"><g class="imagelayer"/><g class="shapelayer"><path data-index="0" fill-rule="evenodd" d="M1262.05,818L1262.05,100" clip-path="url(#clip0e78bex)" style="opacity: 1; stroke: rgb(211, 211, 211); stroke-opacity: 1; fill: rgb(0, 0, 0); fill-opacity: 0; stroke-width: 1px;"/></g></g><g class="infolayer"><g class="legend" pointer-events="all" transform="translate(1361.8600000000001,100)"><rect class="bg" shape-rendering="crispEdges" width="226" height="82" x="0" y="0" style="stroke: rgb(68, 68, 68); stroke-opacity: 1; fill: rgb(0, 0, 0); fill-opacity: 0; stroke-width: 0px;"/><g class="scrollbox" transform="" clip-path="url(#legend0e78be)"><g class="groups"><g class="traces" transform="translate(0,16.9)" style="opacity: 1;"><text class="legendtext" text-anchor="start" x="40" y="6.24" style="font-family: 'Open Sans'; font-size: 16px; fill: rgb(0, 0, 0); fill-opacity: 1; white-space: pre;">System RAM Used (GB)</text><g class="layers" style="opacity: 1;"><g class="legendfill"/><g class="legendlines"><path class="js-line" d="M5,0h30" style="fill: none; stroke: rgb(99, 110, 250); stroke-opacity: 1; stroke-width: 2px;"/></g><g class="legendsymbols"><g class="legendpoints"/></g></g><rect class="legendtoggle" x="0" y="-11.9" width="220.203125" height="23.8" style="fill: rgb(0, 0, 0); fill-opacity: 0;"/></g><g class="traces" transform="translate(0,40.7)" style="opacity: 1;"><text class="legendtext" text-anchor="start" x="40" y="6.24" style="font-family: 'Open Sans'; font-size: 16px; fill: rgb(0, 0, 0); fill-opacity: 1; white-space: pre;">Total GPU Mem Used (GB)</text><g class="layers" style="opacity: 1;"><g class="legendfill"/><g class="legendlines"><path class="js-line" d="M5,0h30" style="fill: none; stroke: rgb(239, 85, 59); stroke-opacity: 1; stroke-width: 2px;"/></g><g class="legendsymbols"><g class="legendpoints"/></g></g><rect class="legendtoggle" x="0" y="-11.9" width="220.203125" height="23.8" style="fill: rgb(0, 0, 0); fill-opacity: 0;"/></g><g class="traces" transform="translate(0,64.5)" style="opacity: 1;"><text class="legendtext" text-anchor="start" x="40" y="6.24" style="font-family: 'Open Sans'; font-size: 16px; fill: rgb(0, 0, 0); fill-opacity: 1; white-space: pre;">Avg GPU Util (%)</text><g class="layers" style="opacity: 1;"><g class="legendfill"/><g class="legendlines"><path class="js-line" d="M5,0h30" style="fill: none; stroke: rgb(0, 204, 150); stroke-opacity: 1; stroke-width: 2px;"/></g><g class="legendsymbols"><g class="legendpoints"/></g></g><rect class="legendtoggle" x="0" y="-11.9" width="220.203125" height="23.8" style="fill: rgb(0, 0, 0); fill-opacity: 0;"/></g></g></g><rect class="scrollbar" rx="20" ry="3" width="0" height="0" x="0" y="0" style="fill: rgb(128, 139, 164); fill-opacity: 1;"/></g><g class="g-gtitle"/><g class="g-xtitle"><text class="xtitle" x="678.2099999999999" y="888.1125" text-anchor="middle" style="font-family: 'Open Sans'; font-size: 29px; fill: rgb(0, 0, 0); opacity: 1; font-weight: normal; white-space: pre;">Time (min)</text></g><g class="g-ytitle" transform="translate(14.1123046875,0)"><text class="ytitle" transform="rotate(-90,11.887500000000003,459)" x="11.887500000000003" y="459" text-anchor="middle" style="font-family: 'Open Sans'; font-size: 29px; fill: rgb(0, 0, 0); opacity: 1; font-weight: normal; white-space: pre;">Memory Used (GB)</text></g><g class="g-y2title"><text class="y2title" transform="rotate(-90,1344.534375,459)" x="1344.534375" y="459" text-anchor="middle" style="font-family: 'Open Sans'; font-size: 29px; fill: rgb(0, 0, 0); opacity: 1; font-weight: normal; white-space: pre;">GPU Utilization (%)</text></g></g></svg>